<svg xmlns="http://www.w3.org/2000/svg" xmlns:xlink="http://www.w3.org/1999/xlink" width="80.627" height="26.876" viewBox="0 0 80.627 26.876">
  <defs>
    <clipPath id="clip-path">
      <rect id="Rectangle_45" data-name="Rectangle 45" width="80.627" height="26.876" fill="#8a919f"/>
    </clipPath>
  </defs>
  <g id="Mask_Group_5" data-name="Mask Group 5" clip-path="url(#clip-path)">
    <g id="CocaCola_gray" transform="translate(0 0.789)">
      <path id="Path_271" data-name="Path 271" d="M30.958,22.063a11.394,11.394,0,0,0-5.8-1.589C19.3,20.428,12.921,23.261,8.59,23.307c-5.091.046-5.344-3.87-4.976-6.035.806-4.63,4.1-9.053,6.22-11.4s4.331-4.146,6.174-4.607,1.659.944,1.451,1.129a1.973,1.973,0,0,0-.944.23,2.093,2.093,0,0,0-.967,1.566c-.069,1.221,1.52,1.451,2.672-1.129A2.049,2.049,0,0,0,16.745.018C15.34-.143,13.174.364,10.617,2,6.148,4.879.159,11.283,0,18.378c-.092,4.031,2.557,6.312,6.174,6.312,3.778,0,8.546-2.211,13.338-2.281,2.972-.023,4.907,1.014,5.874,2.718a3.951,3.951,0,0,1,3.133-1.7,10.548,10.548,0,0,1,6.4,1.866,16.2,16.2,0,0,0-3.962-3.225" transform="translate(0.004 0.01)" fill="#8a919f"/>
      <path id="Path_272" data-name="Path 272" d="M24.853,11.346c-2.465-.622-6.542,3.547-8.247,6.957-1.06,2.119-1.52,4.745.369,5.436s5.091-2.764,5.851-3.755,1.981-3.018,1.981-3.018.369-.069.622-.138.645-.161.645-.161-.461.829-.875,1.682c-.507,1.014-1.843,4.354.76,5.344,2.488.967,6.035-3.041,6.22-3.11,0,0-1.06,2.718.6,3.156,1.8.461,3.778-1.843,3.778-1.843s-.415,1.728.991,1.889c2.511.3,6.957-6.127,6.957-6.127h-.875s-2.257,2.9-3.34,3.5-.691-.461-.415-.944c.369-.6,5.183-8.615,5.183-8.615H42.521l-.3.461a1.684,1.684,0,0,0-1.405-.737c-2.557.161-5.575,4.239-6.911,6.012s-4.216,5.206-5.736,4.607c-1.659-.668,0-3.709,1.083-5.505,1.175-1.958,3.271-3.893,4.1-3.893,1.014-.023.622.9.622.9a1.585,1.585,0,0,0-1.313.6c-.392.484-.714,1.221-.346,1.589.6.645,1.382,0,1.843-.714,1.451-2.234.392-3.409-.76-3.571-2.488-.369-4.722,2.764-6.427,3.916-1.175.806-1.682.737-1.682.737s2.05-4.008-.438-4.653m11.034,7.21a31.5,31.5,0,0,1,3.041-4.285c1.29-1.636,1.958-1.774,2.35-1.751a.44.44,0,0,1,.392.369s-2.833,4.953-3.87,6.358c-.346.461-.622.852-.875,1.152a3.266,3.266,0,0,1-1.244,1.014.708.708,0,0,1-.484-.046c-.461-.276-.115-1.336.691-2.81M23.84,16.967a21.8,21.8,0,0,1-1.52,2.281c-.737.944-2.1,2.35-2.9,2.05-1.267-.461.092-3.2.991-4.538s1.037-1.5,1.06-1.543.046-.069.069-.023a2.92,2.92,0,0,0,.944,1.037,5.626,5.626,0,0,0,1.313.6c.069.023.092.046.046.138m1.06-2.1a9.118,9.118,0,0,1-.484,1.083.218.218,0,0,1-.253.115c-.207-.023-1.751-.369-1.728-1.612s1.7-2.4,2.373-1.889c.622.461.322,1.682.092,2.3" transform="translate(-7.252 -5.213)" fill="#8a919f"/>
      <path id="Path_273" data-name="Path 273" d="M74.876,11.871H72.457L71.1,14.082h2.419Z" transform="translate(-32.88 -5.485)" fill="#8a919f"/>
      <path id="Path_274" data-name="Path 274" d="M117.471,12.776h-2.557l-.415.645a1.862,1.862,0,0,0-1.405-.921c-1.5.023-3.018,1.175-4.768,3.179a54.047,54.047,0,0,0-3.409,4.722s-1.636,2.534-2.465,2.327c-1.405-.346,1.175-5.552,1.175-5.552a30.626,30.626,0,0,0,3.133-2.327c1.106-.944,2.4-2.211,3.571-3.409a40.625,40.625,0,0,0,3.524-4.169,6.554,6.554,0,0,1-.944.092,40.315,40.315,0,0,1-3.2,3.686,41.447,41.447,0,0,1-3.755,3.5,14,14,0,0,1-1.52,1.083,55.751,55.751,0,0,1,4.722-7.671C112.1,3.953,116.25.2,115.928,1.972a7.6,7.6,0,0,1-.9,2.1c.322-.069.645-.161.967-.253.714-1.474.944-2.672.415-3.018-2.165-1.428-7.694,4.469-10.458,7.9a53.241,53.241,0,0,0-5.275,8.684,6.087,6.087,0,0,1-.921.276,1.146,1.146,0,0,1-.484.023.023.023,0,0,1-.023-.023s2.419-4.538-.069-5.137c-2.4-.576-6.565,3.87-8.039,6.957-1.014,2.119-1.589,4.791.161,5.413,1.889.691,5.091-2.764,5.851-3.755.6-.852,1.175-1.751,1.7-2.672,0,0,.461-.023.714-.069.484-.069.714-.115.714-.115s-.322.806-.645,1.843c-.622,1.935-1.2,4.7,1.06,4.814,1.451.092,3.571-2.534,3.571-2.534s-.576,2.3,1.29,2.534c1.382.161,3.386-1.981,3.386-1.981s-.438,1.843.967,2c1.2.138,2.9-1.267,4.285-2.81a28.766,28.766,0,0,0,2.7-3.547H116s-1.958,2.972-3.34,3.778c-1.129.645-.737-.392-.392-.944.461-.622,5.206-8.661,5.206-8.661m-19.4,5.6a16.87,16.87,0,0,1-1.359,2.073c-.737.944-2.073,2.35-2.879,2.05-1.267-.461.115-3.225,1.037-4.561s1.014-1.428,1.037-1.451.046-.069.069-.023a3.914,3.914,0,0,0,.875,1.06,4.4,4.4,0,0,0,1.175.737c.046.023.092.046.046.115m.576-.991c-.092.138-.138.138-.3.092a2.126,2.126,0,0,1-1.5-1.866c0-1.221,1.7-2.4,2.373-1.889.622.461.323,1.682.092,2.281a9.562,9.562,0,0,1-.668,1.382M110.215,20.4c-.346.461-.622.875-.875,1.175-.553.622-.9.921-1.221.991a.7.7,0,0,1-.484-.046c-.461-.276-.138-1.382.668-2.856a19.58,19.58,0,0,1,2.995-4.239c1.405-1.566,1.935-1.636,2.327-1.612a.4.4,0,0,1,.369.369,1.124,1.124,0,0,1-.069.161c-.438.806-2.787,4.791-3.709,6.058" transform="translate(-41.705 -0.262)" fill="#8a919f"/>
      <path id="Path_275" data-name="Path 275" d="M137.2,2.439A11.013,11.013,0,0,1,130.542,4.4c-.6.622-1.244,1.336-1.889,2.142,4.123.829,7.74-1.751,9.675-3.916a13.273,13.273,0,0,0,1.8-2.58,16.39,16.39,0,0,1-2.926,2.4" transform="translate(-59.498 -0.014)" fill="#8a919f"/>
      <path id="Path_276" data-name="Path 276" d="M80.037,12.331a6.519,6.519,0,0,0-4.722,3.709,10.079,10.079,0,0,0-1.221,4.008A13.9,13.9,0,0,1,75.729,18.6a8.1,8.1,0,0,1,1.728-1.014,8.266,8.266,0,0,1,.622-1.843,3.638,3.638,0,0,1,2.027-2.1c1.774-.438.921,2.764-.369,4.86-.691,1.129-3.179,4.377-5.3,4.377s-2.534-2.05-2.1-3.962,1.06-4.354,4.169-8.777A28.109,28.109,0,0,1,84.92,1.988c2-1.129,2.81-.645,2.81-.645A17.324,17.324,0,0,0,83.723,4.8c-1.382,1.82-2.211,3.824-1.566,4.837.622.944,2.764.967,5.16-2.465,2.35-3.386,1.751-5.39,1.751-5.39a3.682,3.682,0,0,1,.484-.115,5.434,5.434,0,0,1,3.478.875c1.5.76,2.9,1.981,4.86,2.995.576-.645,1.244-1.336,1.935-2C97.175,2.287,95.171.444,92.591.283A8.971,8.971,0,0,0,88.56.951S87.869.03,85.75.329,77.134,3.324,71.583,12.215c-5.022,8.039-2.649,12.623.944,12.577,3.916-.046,7.625-4.4,8.892-7.993s-.23-4.561-1.382-4.469m7.671-7.464a9.491,9.491,0,0,1-2.58,3.571c-1.221,1.106-1.889,1.06-2.165.852-.76-.576.253-2.764,2.027-4.7a10.168,10.168,0,0,1,3.271-2.534,4.786,4.786,0,0,1-.553,2.81" transform="translate(-31.775 -0.116)" fill="#8a919f"/>
      <path id="Path_277" data-name="Path 277" d="M136.857,42.837a.876.876,0,0,0-1.244-.023l-.023.023a.8.8,0,0,0-.253.622.99.99,0,0,0,.253.645.887.887,0,0,0,1.52-.645.89.89,0,0,0-.253-.622m-.115,1.175a.8.8,0,0,1-.553.23.85.85,0,0,1-.553-.23.8.8,0,0,1-.23-.553.85.85,0,0,1,.23-.553.8.8,0,0,1,.553-.23.85.85,0,0,1,.553.23.8.8,0,0,1,.23.553.645.645,0,0,1-.23.553" transform="translate(-62.588 -19.681)" fill="#8a919f"/>
      <path id="Path_278" data-name="Path 278" d="M137.042,44.249v-.138a.427.427,0,0,0-.046-.161.233.233,0,0,0-.161-.092.327.327,0,0,0,.138-.046.169.169,0,0,0,.092-.184.224.224,0,0,0-.161-.253,1.156,1.156,0,0,0-.276-.046h-.346v.991h.161v-.392h.138a.449.449,0,0,1,.184.023c.069.023.092.115.092.23v.115h.161v-.023c0,.023,0,0,.023-.023m-.276-.461a.392.392,0,0,1-.161.023h-.161v-.346h.138a.638.638,0,0,1,.207.023.182.182,0,0,1,.023.253.05.05,0,0,1-.046.046" transform="translate(-63.026 -20.033)" fill="#8a919f"/>
    </g>
  </g>
</svg>
