<svg xmlns="http://www.w3.org/2000/svg" xmlns:xlink="http://www.w3.org/1999/xlink" width="100" height="33.333" viewBox="0 0 100 33.333">
  <defs>
    <clipPath id="clip-path">
      <rect id="Rectangle_45" data-name="Rectangle 45" width="100" height="33.333" fill="#8a919f"/>
    </clipPath>
  </defs>
  <g id="Mask_Group_9" data-name="Mask Group 9" clip-path="url(#clip-path)">
    <g id="cheeze-it-red" transform="translate(0 6.84)">
      <path id="Path_312" data-name="Path 312" d="M82.582,20.168c0,.047.009.093.009.13.019.67.047,1.34.047,2,0,.493-.028,1-.047,1.489a.373.373,0,0,1-.289.391c-.186.056-.372.14-.559.177a2.223,2.223,0,0,1-1.527-.168.523.523,0,0,1-.307-.4c-.037-.335-.1-.661-.121-1-.074-1.927-.13-3.854-.2-5.771-.037-1.238-.084-2.476-.121-3.714-.028-.828-.047-1.666-.037-2.495a1.033,1.033,0,0,1,.773-1.061,5.978,5.978,0,0,1,.9-.186,1.147,1.147,0,0,1,1.406.94,6.064,6.064,0,0,1,.14,1.741,1.475,1.475,0,0,0,.047.577,1.256,1.256,0,0,0,2.113.2.258.258,0,0,0,.047-.149c-.009-.782.037-1.564-.037-2.336A3.5,3.5,0,0,0,81.94,7.583a6.046,6.046,0,0,0-3.472.6,1.922,1.922,0,0,0-1.136,1.787c-.019.782.019,1.573.019,2.355,0,.521-.047,1.033-.028,1.555.019.912.093,1.815.112,2.727.028,1.35.019,2.7.056,4.049.028,1.043.065,2.085.168,3.118a2.634,2.634,0,0,0,1.648,2.308,5.218,5.218,0,0,0,2.634.391,4.376,4.376,0,0,0,2-.642,1.483,1.483,0,0,0,.726-.912,4.573,4.573,0,0,0,.168-.922c.037-.977.047-1.955.056-2.923,0-.54-.028-1.089-.037-1.629a.619.619,0,0,0-.168-.5,1.511,1.511,0,0,0-1.108-.456c-.3.019-.605.009-.9,0-.41-.009-.828-.047-1.238-.037a.966.966,0,0,0-.977.828.841.841,0,0,0,.735.8.718.718,0,0,0,.14.019C81.735,20.112,82.154,20.14,82.582,20.168Z" transform="translate(-35.332 -7.431)" fill="#8a919f"/>
      <path id="Path_313" data-name="Path 313" d="M158.249,12.073h0c-.009-.112-.009-.223-.009-.335a6.536,6.536,0,0,0-.316-2.281,2.639,2.639,0,0,0-1.731-1.8,5.188,5.188,0,0,0-1.2-.168,4.7,4.7,0,0,0-2.318.382,2.268,2.268,0,0,0-1.34,1.694,11.556,11.556,0,0,0-.13,3.156,3.276,3.276,0,0,0,1,2.141c.344.316.689.624,1.052.922.7.577,1.424,1.117,2.1,1.713a3.152,3.152,0,0,1,1.126,2.42c0,.605.074,1.219.093,1.824a3.9,3.9,0,0,1-.475,2.234,1.2,1.2,0,0,1-1.359.493,1.591,1.591,0,0,1-1.061-1.285c-.047-.549-.037-1.1-.047-1.648a1.109,1.109,0,0,0-.642-1.024,1.066,1.066,0,0,0-.559-.121,1.1,1.1,0,0,0-1.033,1.154c.009.605.028,1.21.074,1.806a2.89,2.89,0,0,0,1.285,2.262,4.151,4.151,0,0,0,2.932.689,3.405,3.405,0,0,0,3.09-3.3c.028-.922.028-1.852-.009-2.774a5.249,5.249,0,0,0-1.312-3.4,14.535,14.535,0,0,0-1.471-1.359c-.559-.475-1.164-.894-1.731-1.359a2.266,2.266,0,0,1-.866-1.9c.009-.605.084-1.2.065-1.806a1.011,1.011,0,0,1,.4-.828.713.713,0,0,1,.4-.177,6.717,6.717,0,0,1,.866.009.479.479,0,0,1,.261.14,2.02,2.02,0,0,1,.456,1.173c.074.735.1,1.48.149,2.215a.689.689,0,0,0,.3.549,1.561,1.561,0,0,0,1.666.009.64.64,0,0,0,.3-.549C158.239,12.659,158.249,12.362,158.249,12.073Z" transform="translate(-59.943 -7.415)" fill="#8a919f"/>
      <path id="Path_314" data-name="Path 314" d="M130.765,17.847h-.037a.132.132,0,0,1-.019-.056c-.186-1.117-.363-2.234-.559-3.351-.372-2.1-.735-4.2-1.257-6.274a.849.849,0,0,0-.465-.6,1.327,1.327,0,0,0-1.3.019.674.674,0,0,0-.363.856q.824,3.365,1.359,6.8c.251,1.62.54,3.239.81,4.859.186,1.07.4,2.141.559,3.211.1.642.121,1.3.2,1.955a1.1,1.1,0,0,0,.251.661,1.158,1.158,0,0,0,1.843-.614c.233-1.033.438-2.076.605-3.118.168-1.1.251-2.215.41-3.314.279-1.936.577-3.863.866-5.79a41.113,41.113,0,0,0,.475-4.645.821.821,0,0,0-.14-.456,1.191,1.191,0,0,0-1.368-.354c-.521.186-.642.354-.661.931a38.613,38.613,0,0,1-.5,4.626l-.531,3.519C130.876,17.074,130.82,17.465,130.765,17.847Z" transform="translate(-51.802 -7.39)" fill="#8a919f"/>
      <path id="Path_315" data-name="Path 315" d="M24.849,24.816V19.994h1.229v4.812h2.336V13.376H26.059v4.589H24.839V13.376H22.494V24.807C23.285,24.816,24.048,24.816,24.849,24.816Z" transform="translate(-17.058 -9.379)" fill="#8a919f"/>
      <path id="Path_316" data-name="Path 316" d="M39.761,24.825h3.91c.186,0,.437.065.549-.028s.13-.354.177-.54q.168-.7.335-1.424H42.125V19.994h1.918v-2H42.134V15.358h2.374c0-.093.009-.158.009-.223,0-.512-.009-1.024,0-1.536,0-.186-.056-.233-.233-.223-1.443.009-2.886,0-4.328,0h-.2C39.761,17.192,39.761,20.99,39.761,24.825Z" transform="translate(-22.81 -9.379)" fill="#8a919f"/>
      <path id="Path_317" data-name="Path 317" d="M36.754,13.376H32.016V24.807h4.738V22.824H34.381V19.985h1.9v-2H34.567c-.149,0-.2-.037-.2-.2.009-.745.009-1.5,0-2.243,0-.158.056-.2.2-.2.652.009,1.3,0,1.945,0,.074,0,.149-.009.242-.009Z" transform="translate(-20.232 -9.379)" fill="#8a919f"/>
      <path id="Path_318" data-name="Path 318" d="M49.386,15.354c-.763,3.183-1.508,6.32-2.262,9.457h5.287V22.829H50.149c.754-3.165,1.508-6.292,2.262-9.439H47.384v1.973C48.055,15.354,48.7,15.354,49.386,15.354Z" transform="translate(-25.268 -9.384)" fill="#8a919f"/>
      <path id="Path_319" data-name="Path 319" d="M66.359,24.812V15.55c0-.158.047-.223.214-.214.307.009.614,0,.922,0H68V13.362H62.357v1.973h1.657v9.457C64.8,24.812,65.559,24.812,66.359,24.812Z" transform="translate(-30.345 -9.375)" fill="#8a919f"/>
      <path id="Path_320" data-name="Path 320" d="M60.518,24.369V12.036H58.163v.251c0,1.452,0,2.895-.009,4.347,0,.223.047.363.261.428a.329.329,0,0,1,.242.307,2.165,2.165,0,0,0,.037.344c.037.158.1.316.149.475.037.13.065.27.093.4.028.158.056.316.093.475.056.242.14.475.2.717a.176.176,0,0,1-.084.149,4.347,4.347,0,0,1-.689.158c-.233.028-.289.065-.289.289v3.8c0,.065.009.13.009.2C58.955,24.369,59.727,24.369,60.518,24.369Z" transform="translate(-28.944 -8.932)" fill="#8a919f"/>
      <path id="Path_321" data-name="Path 321" d="M68.277,33.615A.557.557,0,0,0,68.3,33.5c0-.419.028-.344-.326-.344H61.24v.447C63.586,33.615,65.922,33.615,68.277,33.615Z" transform="translate(-29.973 -15.972)" fill="#8a919f"/>
      <path id="Path_322" data-name="Path 322" d="M35.786,33.045c.065.326.13.642.2.959.074.009.13.019.242.037-.074.093-.121.186-.186.2-.14.037-.13.093-.093.186.242.009.372-.047.41-.223.093-.382.168-.763.251-1.164h-.214c-.056.261-.112.512-.168.763a.118.118,0,0,1-.056-.009c-.056-.251-.112-.5-.168-.763A1.578,1.578,0,0,1,35.786,33.045Z" transform="translate(-21.488 -15.932)" fill="#8a919f"/>
      <path id="Path_323" data-name="Path 323" d="M34.125,32.435V33.7c0,.158.093.121.2.1a3.856,3.856,0,0,1,.009-.568c.009-.074.112-.13.168-.2.047.065.121.14.13.2.019.186.009.372.009.577.084-.009.149-.009.223-.019,0-.233.009-.447,0-.661a.309.309,0,0,0-.372-.307c-.047,0-.093.009-.112.009C34.236,32.724,34.478,32.444,34.125,32.435Z" transform="translate(-20.935 -15.732)" fill="#8a919f"/>
      <path id="Path_324" data-name="Path 324" d="M54.794,33.345c.223.121.158.54.568.447-.27-.3-.372-.614-.065-.94-.363-.1-.307.27-.5.391v-.791c-.14-.047-.214-.028-.214.121v1.164c0,.028.019.047.028.084.056-.009.112-.009.177-.019C54.794,33.643,54.794,33.5,54.794,33.345Z" transform="translate(-27.753 -15.73)" fill="#8a919f"/>
      <path id="Path_325" data-name="Path 325" d="M29.454,33.049c0,.2.009.391-.009.577-.009.074-.093.13-.14.2-.056-.065-.149-.121-.158-.2a2.39,2.39,0,0,1-.009-.447.472.472,0,0,0-.019-.121h-.177c0,.242-.009.475,0,.707a.249.249,0,0,0,.261.261c.149,0,.307-.009.465-.019v-.949Z" transform="translate(-19.206 -15.937)" fill="#8a919f"/>
      <path id="Path_326" data-name="Path 326" d="M30.7,33.992c.14.047.2.009.2-.13a3.006,3.006,0,0,1,0-.41c0-.112.037-.233.168-.214.056.009.121.14.13.214a5.5,5.5,0,0,1,.009.559c.084,0,.149-.009.223-.009,0-.233.009-.456,0-.68a.276.276,0,0,0-.242-.289c-.158-.009-.316,0-.484,0Z" transform="translate(-19.794 -15.93)" fill="#8a919f"/>
      <path id="Path_327" data-name="Path 327" d="M40.324,33.035V34h.2v-.54c0-.112.019-.233.158-.233s.158.112.158.223v.559A1.721,1.721,0,0,1,41.05,34c0-.242.009-.465,0-.7a.262.262,0,0,0-.3-.27Z" transform="translate(-23.001 -15.932)" fill="#8a919f"/>
      <path id="Path_328" data-name="Path 328" d="M59.377,33.65c0,.261.084.354.27.372.158.009.307,0,.363-.2a.281.281,0,0,0-.214-.363c-.047-.019-.112-.028-.14-.065a.351.351,0,0,1-.037-.149.355.355,0,0,1,.14.009,2.237,2.237,0,0,1,.214.1c0-.223-.084-.326-.27-.326-.149,0-.279.037-.326.2a.287.287,0,0,0,.214.363.365.365,0,0,1,.121.056.264.264,0,0,1,.074.1c0,.019-.037.065-.056.065a.39.39,0,0,1-.14-.037C59.535,33.752,59.479,33.706,59.377,33.65Z" transform="translate(-29.348 -15.932)" fill="#8a919f"/>
      <path id="Path_329" data-name="Path 329" d="M38.726,33.663c-.019.223.065.326.233.354.2.037.344-.037.382-.186a.278.278,0,0,0-.186-.363c-.047-.019-.112-.028-.14-.065s-.037-.1-.056-.158a.815.815,0,0,1,.149.019c.074.019.14.056.242.093-.028-.233-.121-.326-.3-.335a.282.282,0,0,0-.326.2.287.287,0,0,0,.214.363,1.092,1.092,0,0,1,.1.047.283.283,0,0,1,.084.121c.009.009-.037.065-.056.065a.412.412,0,0,1-.14-.047C38.875,33.738,38.81,33.7,38.726,33.663Z" transform="translate(-22.464 -15.927)" fill="#8a919f"/>
      <path id="Path_330" data-name="Path 330" d="M26.569,33.241c-.121-.214-.289-.27-.447-.2a.612.612,0,0,0-.261.307.9.9,0,0,0-.009.354.364.364,0,0,0,.707.056c-.1.009-.177.028-.251.028s-.186,0-.186-.019a1.7,1.7,0,0,1-.028-.437c0-.037.093-.074.149-.1.009-.009.037.019.056.019A2.583,2.583,0,0,0,26.569,33.241Z" transform="translate(-18.173 -15.924)" fill="#8a919f"/>
      <path id="Path_331" data-name="Path 331" d="M53.633,33.766c-.1.009-.177.009-.242.019a1.158,1.158,0,0,1-.186,0,2.249,2.249,0,0,1-.047-.437c0-.037.084-.084.14-.121.009-.009.047.019.074.019h.27a.353.353,0,0,0-.419-.214.318.318,0,0,0-.27.3,1.375,1.375,0,0,0,0,.391.326.326,0,0,0,.279.289A.336.336,0,0,0,53.633,33.766Z" transform="translate(-27.206 -15.928)" fill="#8a919f"/>
      <path id="Path_332" data-name="Path 332" d="M44.424,33.751a1.558,1.558,0,0,1-.261.028c-.065,0-.186,0-.186-.028a1.7,1.7,0,0,1-.028-.437c0-.037.093-.074.149-.1.009-.009.037.019.056.019h.261c-.1-.2-.251-.261-.391-.2a.482.482,0,0,0-.279.261,1.114,1.114,0,0,0-.009.465.282.282,0,0,0,.279.251A.341.341,0,0,0,44.424,33.751Z" transform="translate(-24.131 -15.922)" fill="#8a919f"/>
      <path id="Path_333" data-name="Path 333" d="M33.167,33.757c-.112.009-.186.028-.261.028s-.186,0-.186-.019a1.7,1.7,0,0,1-.028-.437c0-.037.093-.074.14-.1.009-.009.037.019.056.019h.27a.379.379,0,0,0-.428-.214.32.32,0,0,0-.27.316,1.8,1.8,0,0,0,0,.316.326.326,0,0,0,.27.344A.35.35,0,0,0,33.167,33.757Z" transform="translate(-20.377 -15.928)" fill="#8a919f"/>
      <path id="Path_334" data-name="Path 334" d="M48.925,33.765c-.093.009-.177.019-.251.019a.863.863,0,0,1-.186-.009,1.7,1.7,0,0,1-.037-.437c0-.037.084-.074.14-.112.009-.009.047.019.074.019h.261a.356.356,0,0,0-.456-.2.334.334,0,0,0-.242.344c0,.1,0,.214.009.316a.312.312,0,0,0,.279.307A.324.324,0,0,0,48.925,33.765Z" transform="translate(-25.635 -15.927)" fill="#8a919f"/>
      <path id="Path_335" data-name="Path 335" d="M28.055,33.077h-.521v.949c.074,0,.13-.009.2-.009.056-.689.056-.689.326-.773Z" transform="translate(-18.738 -15.946)" fill="#8a919f"/>
      <path id="Path_336" data-name="Path 336" d="M50.084,34.022a2.692,2.692,0,0,1,.047-.493c.019-.093.093-.214.168-.233a.174.174,0,0,0,.14-.2h-.521v.931Z" transform="translate(-26.198 -15.951)" fill="#8a919f"/>
      <path id="Path_337" data-name="Path 337" d="M58.219,34.031a2.8,2.8,0,0,1,.047-.5.343.343,0,0,1,.168-.233.174.174,0,0,0,.14-.2h-.531v.931C58.1,34.022,58.145,34.031,58.219,34.031Z" transform="translate(-28.907 -15.951)" fill="#8a919f"/>
      <path id="Path_338" data-name="Path 338" d="M45.606,33.8V32.534c0-.158-.1-.1-.186-.084v1.34a.237.237,0,0,0,.065.019C45.5,33.81,45.541,33.8,45.606,33.8Z" transform="translate(-24.7 -15.729)" fill="#8a919f"/>
      <path id="Path_339" data-name="Path 339" d="M46.219,34.031a.405.405,0,0,0,.056-.065.669.669,0,0,1-.065-.959.48.48,0,0,0-.279.112c-.251.261-.158.531.037.773A.851.851,0,0,0,46.219,34.031Z" transform="translate(-24.819 -15.923)" fill="#8a919f"/>
      <path id="Path_340" data-name="Path 340" d="M14.34,17.773c.028-.316.056-.633.084-.959a9.172,9.172,0,0,1,.6-2.634,3.923,3.923,0,0,1,1.229-1.722,2.526,2.526,0,0,1,2.29-.419,1.621,1.621,0,0,1,.5.261.7.7,0,0,1,.316.633c-.019.624-.009,1.247-.009,1.871v.27c-.056-.074-.074-.1-.093-.13a1.086,1.086,0,0,0-1.936.028,3.861,3.861,0,0,0-.419,1.545,16.471,16.471,0,0,0,0,3.453,3.527,3.527,0,0,0,.437,1.536,1.077,1.077,0,0,0,1.9-.009c.028-.047.056-.084.1-.168a2.209,2.209,0,0,1,.009.223c0,.661-.009,1.322.009,1.983a.678.678,0,0,1-.27.577,1.641,1.641,0,0,1-.931.372,2.61,2.61,0,0,1-2.439-1.024,5.486,5.486,0,0,1-1.089-2.513c-.121-.7-.177-1.4-.261-2.1l-.028-.168Z" transform="translate(-14.34 -8.899)" fill="#8a919f"/>
      <path id="Path_341" data-name="Path 341" d="M14.34,10.235a1.983,1.983,0,0,1,.233-.028H52.42c.261,0,.279.028.214.447-.056,0-.121.009-.186.009H14.34C14.34,10.523,14.34,10.374,14.34,10.235Z" transform="translate(-14.34 -8.323)" fill="#8a919f"/>
      <path id="Path_342" data-name="Path 342" d="M14.34,33.189a1.685,1.685,0,0,1,.214-.028h6.693c.065,0,.13.009.2.009v.447c-.065,0-.121.009-.177.009H14.507a.9.9,0,0,1-.158-.009C14.34,33.478,14.34,33.338,14.34,33.189Z" transform="translate(-14.34 -15.974)" fill="#8a919f"/>
      <g id="Group_52" data-name="Group 52" transform="translate(50.758 0.25)">
        <path id="Path_343" data-name="Path 343" d="M97.691,25.465a9.2,9.2,0,0,1-.605-1.387c-.6-1.7-1.145-3.407-1.89-5.054-.056-.121-.112-.251-.168-.382.112-.037.2-.074.289-.1a2.766,2.766,0,0,0,1.843-1.918,6.923,6.923,0,0,0,.261-1.9c.009-.894,0-1.778-.028-2.672-.028-.67-.065-1.35-.158-2.011A2.181,2.181,0,0,0,95.6,8.133a7.523,7.523,0,0,0-1.005-.242A15.534,15.534,0,0,0,91.65,7.77,1.28,1.28,0,0,0,90.831,8a.718.718,0,0,0-.354.633c.028.745.056,1.489.074,2.234.047,1.685.084,3.379.121,5.073.028,1.433.047,2.867.047,4.3.009,1.769,0,3.537-.009,5.306a.809.809,0,0,0,.717.931,2.33,2.33,0,0,0,.763.019.818.818,0,0,0,.773-.949c-.009-.465,0-.931,0-1.4,0-1.052,0-2.113.009-3.165V19.266a1.6,1.6,0,0,1,.084.177c.531,1.433,1.061,2.876,1.582,4.31a14.549,14.549,0,0,0,.884,2.206.976.976,0,0,0,.605.5,1.582,1.582,0,0,0,1.433-.251A.584.584,0,0,0,97.691,25.465Zm-3.984-8.219a8.012,8.012,0,0,1-.819,0c-.056-2.429-.112-4.84-.158-7.279.279,0,.54-.009.791,0,.335.019.68.074,1.015.1a.38.38,0,0,1,.363.335,10.916,10.916,0,0,1,.186,1.08c.074.875.168,1.75.177,2.625a12.013,12.013,0,0,1-.149,1.918C95.01,16.8,94.564,17.162,93.707,17.246Z" transform="translate(-90.477 -7.756)" fill="#8a919f"/>
      </g>
      <path id="Path_344" data-name="Path 344" d="M82.569,20.164l-1.275-.084a.719.719,0,0,1-.14-.019.834.834,0,0,1-.735-.8.966.966,0,0,1,.977-.828c.41-.009.828.028,1.238.037.3.009.605.009.9,0a1.533,1.533,0,0,1,1.108.456.629.629,0,0,1,.168.5c.009.54.037,1.089.037,1.629-.009.977-.019,1.955-.056,2.923a5.175,5.175,0,0,1-.168.922,1.483,1.483,0,0,1-.726.912,4.341,4.341,0,0,1-2,.642,5.32,5.32,0,0,1-2.634-.391,2.623,2.623,0,0,1-1.648-2.308c-.093-1.033-.14-2.076-.168-3.118-.037-1.35-.028-2.7-.056-4.049-.019-.912-.084-1.815-.112-2.727-.009-.512.028-1.033.028-1.554,0-.791-.047-1.573-.019-2.355a1.884,1.884,0,0,1,1.136-1.787,6.046,6.046,0,0,1,3.472-.6,3.5,3.5,0,0,1,2.886,2.951c.074.773.028,1.555.037,2.336a.234.234,0,0,1-.047.149,1.249,1.249,0,0,1-2.113-.2,1.318,1.318,0,0,1-.047-.577,5.775,5.775,0,0,0-.14-1.741,1.147,1.147,0,0,0-1.406-.94,5.978,5.978,0,0,0-.9.186A1.033,1.033,0,0,0,79.4,10.8c-.009.828.019,1.666.037,2.495.037,1.238.084,2.476.121,3.714.065,1.927.121,3.854.2,5.771a9.086,9.086,0,0,0,.121,1,.491.491,0,0,0,.307.4,2.171,2.171,0,0,0,1.527.168c.186-.037.372-.121.559-.177a.373.373,0,0,0,.289-.391c.019-.493.047-1,.047-1.489,0-.67-.028-1.34-.047-2C82.588,20.257,82.579,20.21,82.569,20.164Z" transform="translate(-35.32 -7.426)" fill="#8a919f"/>
      <path id="Path_345" data-name="Path 345" d="M158.249,12.073c0,.3-.009.586,0,.884a.631.631,0,0,1-.3.549,1.542,1.542,0,0,1-1.666-.009.675.675,0,0,1-.3-.549c-.037-.735-.074-1.48-.149-2.215a2.02,2.02,0,0,0-.456-1.173.426.426,0,0,0-.261-.14,5.377,5.377,0,0,0-.866-.009.713.713,0,0,0-.4.177,1.011,1.011,0,0,0-.4.828c.019.605-.056,1.2-.065,1.806a2.278,2.278,0,0,0,.866,1.9c.568.465,1.173.884,1.731,1.359a14.535,14.535,0,0,1,1.471,1.359,5.249,5.249,0,0,1,1.312,3.4c.037.922.028,1.852.009,2.774a3.405,3.405,0,0,1-3.09,3.3,4.151,4.151,0,0,1-2.932-.689,2.942,2.942,0,0,1-1.285-2.262c-.047-.605-.074-1.2-.074-1.806a1.1,1.1,0,0,1,1.033-1.154.967.967,0,0,1,.559.121,1.141,1.141,0,0,1,.642,1.024,16.232,16.232,0,0,0,.047,1.648,1.591,1.591,0,0,0,1.061,1.285,1.212,1.212,0,0,0,1.359-.493,3.823,3.823,0,0,0,.475-2.234c-.019-.605-.093-1.219-.093-1.824a3.093,3.093,0,0,0-1.126-2.42c-.68-.6-1.406-1.136-2.1-1.713-.363-.3-.707-.605-1.052-.922a3.19,3.19,0,0,1-1-2.141,11.556,11.556,0,0,1,.13-3.156,2.3,2.3,0,0,1,1.34-1.694,4.732,4.732,0,0,1,2.318-.382,5.188,5.188,0,0,1,1.2.168,2.639,2.639,0,0,1,1.731,1.8,6.536,6.536,0,0,1,.316,2.281v.335Z" transform="translate(-59.943 -7.415)" fill="#8a919f"/>
      <g id="Group_53" data-name="Group 53" transform="translate(82.96 0.278)">
        <path id="Path_346" data-name="Path 346" d="M145.6,20.369a2.068,2.068,0,0,0-.344-.084.689.689,0,0,0-.81.4,3.444,3.444,0,0,0-.233.68c-.2.782-.372,1.564-.559,2.346a.588.588,0,0,1-.642.484.661.661,0,0,1-.614-.382,12.426,12.426,0,0,1-1.34-4.245,10.805,10.805,0,0,1-.1-1.648c-.009-1.061.009-2.122.009-3.193a1.108,1.108,0,0,1,.158-.028l1.945-.084c.68-.019,1.35-.019,2.02-.056a.91.91,0,0,0,.94-1.136c-.084-.67-.168-1.34-.261-2a7.447,7.447,0,0,0-.549-1.955A2.71,2.71,0,0,0,141.894,7.9a3.049,3.049,0,0,0-2.011,1.8,10.439,10.439,0,0,0-.866,3.314,33.076,33.076,0,0,0-.223,5.082,14.716,14.716,0,0,0,.531,3.6,9.956,9.956,0,0,0,1.424,3.23,2.89,2.89,0,0,0,1.936,1.294,2.511,2.511,0,0,0,2.7-1.387,7.455,7.455,0,0,0,.894-3.546A.933.933,0,0,0,145.6,20.369Zm-4.273-8.35a5.511,5.511,0,0,1,.624-1.7,3.241,3.241,0,0,1,.54-.642c.186-.177.3-.14.456.065a3.7,3.7,0,0,1,.624,1.536c.1.521.168,1.043.261,1.61l-2.681.084C141.205,12.624,141.252,12.317,141.326,12.019Z" transform="translate(-138.779 -7.797)" fill="#8a919f"/>
      </g>
      <path id="Path_347" data-name="Path 347" d="M130.767,17.838c.056-.382.112-.773.177-1.154l.531-3.519a38.623,38.623,0,0,0,.5-4.626c.019-.577.14-.745.661-.931a1.173,1.173,0,0,1,1.368.354.9.9,0,0,1,.14.456,40.682,40.682,0,0,1-.475,4.645c-.289,1.927-.6,3.854-.866,5.79-.158,1.1-.242,2.215-.41,3.314-.158,1.043-.372,2.085-.605,3.118a1.155,1.155,0,0,1-1.843.614,1.139,1.139,0,0,1-.251-.661c-.084-.652-.1-1.3-.2-1.955-.168-1.07-.372-2.141-.559-3.211-.279-1.62-.559-3.239-.81-4.859-.354-2.281-.81-4.552-1.359-6.8a.683.683,0,0,1,.363-.856,1.327,1.327,0,0,1,1.3-.019.868.868,0,0,1,.465.6c.521,2.076.884,4.17,1.257,6.274.2,1.117.372,2.234.559,3.351,0,.019.019.037.019.056S130.748,17.838,130.767,17.838Z" transform="translate(-51.804 -7.381)" fill="#8a919f"/>
      <path id="Path_348" data-name="Path 348" d="M24.849,24.816H22.494V13.376h2.346v4.589h1.219V13.376h2.355V24.8H26.077V19.985H24.849Z" transform="translate(-17.058 -9.379)" fill="#8a919f"/>
      <path id="Path_349" data-name="Path 349" d="M39.765,24.821V13.362H44.3c.177,0,.233.037.233.223-.009.512,0,1.024,0,1.536,0,.065-.009.13-.009.223H42.148v2.634h1.908v2H42.139V22.82h2.606c-.121.493-.223.959-.335,1.424-.047.186-.047.437-.177.54-.112.093-.363.028-.549.028H40.026A2.44,2.44,0,0,1,39.765,24.821Z" transform="translate(-22.815 -9.375)" fill="#8a919f"/>
      <path id="Path_350" data-name="Path 350" d="M36.754,13.371v1.955c-.084,0-.168.009-.242.009H34.567c-.149,0-.2.037-.2.2.009.745.009,1.5,0,2.243,0,.158.056.2.2.2.559-.009,1.126,0,1.713,0v2h-1.9V22.81h2.374v1.983H32.016V13.362C33.6,13.371,35.162,13.371,36.754,13.371Z" transform="translate(-20.232 -9.375)" fill="#8a919f"/>
      <path id="Path_351" data-name="Path 351" d="M49.39,15.35H47.4V13.376h5.027c-.754,3.146-1.5,6.283-2.262,9.439h2.262V24.8H47.138C47.873,21.67,48.627,18.533,49.39,15.35Z" transform="translate(-25.272 -9.379)" fill="#8a919f"/>
      <path id="Path_352" data-name="Path 352" d="M66.355,24.821H64V15.363H62.343V13.39h5.641v1.973h-.5c-.307,0-.614.009-.922,0-.168-.009-.214.047-.214.214.009,1.145,0,2.29,0,3.444v5.548A1.952,1.952,0,0,1,66.355,24.821Z" transform="translate(-30.341 -9.384)" fill="#8a919f"/>
      <path id="Path_353" data-name="Path 353" d="M60.518,24.369H58.173c0-.074-.009-.14-.009-.2v-3.8c0-.223.065-.261.289-.289a4.346,4.346,0,0,0,.689-.158.176.176,0,0,0,.084-.149c-.056-.242-.13-.475-.2-.717-.037-.158-.056-.316-.093-.465a2.785,2.785,0,0,0-.093-.4c-.047-.158-.112-.316-.149-.475a2.166,2.166,0,0,1-.037-.344.339.339,0,0,0-.242-.307c-.214-.065-.261-.214-.261-.428.009-1.452.009-2.895.009-4.347v-.251h2.355Q60.518,18.193,60.518,24.369Z" transform="translate(-28.944 -8.932)" fill="#8a919f"/>
      <path id="Path_354" data-name="Path 354" d="M68.277,33.619H61.24v-.447h6.73c.344,0,.326-.074.326.344A.287.287,0,0,0,68.277,33.619Z" transform="translate(-29.973 -15.976)" fill="#8a919f"/>
      <path id="Path_355" data-name="Path 355" d="M35.786,33.049H36c.056.251.112.512.168.763a.118.118,0,0,1,.056.009c.056-.251.112-.5.168-.763h.214c-.084.4-.158.782-.251,1.164-.047.177-.168.233-.41.223-.037-.093-.047-.158.093-.186.065-.019.1-.112.186-.2-.112-.019-.168-.028-.242-.037C35.916,33.692,35.851,33.375,35.786,33.049Z" transform="translate(-21.488 -15.937)" fill="#8a919f"/>
      <path id="Path_356" data-name="Path 356" d="M34.12,32.435c.363.019.112.3.251.419.019,0,.065-.009.112-.009a.309.309,0,0,1,.372.307c.009.214,0,.428,0,.661a2.16,2.16,0,0,0-.223.019c0-.2.009-.391-.009-.577-.009-.074-.084-.14-.13-.2-.056.065-.158.121-.168.2a3.834,3.834,0,0,0-.009.568c-.112.019-.2.056-.2-.1C34.12,33.282,34.12,32.873,34.12,32.435Z" transform="translate(-20.93 -15.732)" fill="#8a919f"/>
      <g id="Group_54" data-name="Group 54" transform="translate(98.688 0.264)">
        <path id="Path_357" data-name="Path 357" d="M163.013,7.777a.625.625,0,1,0,.028,1.247.622.622,0,0,0,.642-.624A.635.635,0,0,0,163.013,7.777Zm.316,1.005h0a.464.464,0,0,1-.67-.019.51.51,0,0,1,.047-.735.492.492,0,0,1,.7.074A.454.454,0,0,1,163.33,8.782Z" transform="translate(-162.371 -7.777)" fill="#8a919f"/>
      </g>
      <path id="Path_358" data-name="Path 358" d="M54.8,33.341v.447c-.065.009-.121.009-.177.019-.009-.037-.028-.056-.028-.084V32.559c0-.149.065-.168.214-.121v.791c.2-.121.14-.493.5-.391-.316.326-.2.633.065.94C54.957,33.871,55.022,33.462,54.8,33.341Z" transform="translate(-27.758 -15.726)" fill="#8a919f"/>
      <g id="Group_55" data-name="Group 55" transform="translate(18.465 17.101)">
        <path id="Path_359" data-name="Path 359" d="M42.72,33.3c-.009-.2-.14-.289-.354-.27-.186.009-.279.1-.279.316l.2-.056c.047-.019.13-.065.149-.047.047.037.065.112.112.2a1.719,1.719,0,0,0-.27.019.261.261,0,0,0-.233.307.245.245,0,0,0,.279.242c.13,0,.27-.019.41-.028C42.72,33.76,42.729,33.528,42.72,33.3Zm-.344.521c-.037,0-.074-.056-.112-.093a.532.532,0,0,1,.149-.1c.028-.009.074.037.149.093A1.414,1.414,0,0,1,42.375,33.826Z" transform="translate(-42.038 -33.032)" fill="#8a919f"/>
      </g>
      <path id="Path_360" data-name="Path 360" d="M29.45,33.049h.2V34a3.891,3.891,0,0,1-.465.019.244.244,0,0,1-.261-.261c-.009-.233,0-.465,0-.707h.177a.545.545,0,0,1,.019.121,2.373,2.373,0,0,0,.009.447c.009.074.1.13.158.2.047-.065.13-.13.14-.2A3.9,3.9,0,0,0,29.45,33.049Z" transform="translate(-19.201 -15.937)" fill="#8a919f"/>
      <path id="Path_361" data-name="Path 361" d="M30.7,33.992v-.959c.158,0,.326-.009.484,0a.263.263,0,0,1,.242.289c.009.223,0,.447,0,.68-.074,0-.14.009-.223.009a5.5,5.5,0,0,0-.009-.559c-.009-.074-.074-.2-.13-.214-.13-.028-.168.093-.168.214a3.006,3.006,0,0,0,0,.41C30.908,34,30.843,34.039,30.7,33.992Z" transform="translate(-19.794 -15.93)" fill="#8a919f"/>
      <path id="Path_362" data-name="Path 362" d="M40.319,33.035h.419a.267.267,0,0,1,.3.27c.019.223,0,.456,0,.7-.065,0-.13.009-.214.009v-.559c0-.112-.019-.223-.158-.223s-.158.121-.158.233V34h-.2C40.319,33.678,40.319,33.371,40.319,33.035Z" transform="translate(-22.996 -15.932)" fill="#8a919f"/>
      <path id="Path_363" data-name="Path 363" d="M59.382,33.65c.1.056.158.1.223.13a.39.39,0,0,0,.14.037c.019,0,.056-.047.056-.065a.2.2,0,0,0-.074-.1.353.353,0,0,0-.121-.056.291.291,0,0,1-.214-.363c.047-.158.177-.2.326-.2.177.009.27.1.27.326a2.237,2.237,0,0,0-.214-.1.355.355,0,0,0-.14-.009c.009.047,0,.112.037.149s.093.047.14.065a.284.284,0,0,1,.214.363c-.047.186-.2.2-.363.2C59.465,34,59.382,33.91,59.382,33.65Z" transform="translate(-29.353 -15.932)" fill="#8a919f"/>
      <path id="Path_364" data-name="Path 364" d="M38.731,33.668c.084.047.149.084.214.112a.412.412,0,0,0,.14.047c.019,0,.065-.056.056-.065a.354.354,0,0,0-.084-.121.251.251,0,0,0-.1-.047.287.287,0,0,1-.214-.363c.047-.158.177-.2.326-.2.186.009.27.1.3.335-.1-.037-.168-.074-.242-.093a.815.815,0,0,0-.149-.019c.019.056.019.121.056.158s.093.047.14.065a.275.275,0,0,1,.186.363c-.037.149-.186.214-.382.186A.292.292,0,0,1,38.731,33.668Z" transform="translate(-22.469 -15.932)" fill="#8a919f"/>
      <path id="Path_365" data-name="Path 365" d="M26.565,33.242H26.3c-.019,0-.047-.028-.056-.019-.056.028-.149.065-.149.1a2.256,2.256,0,0,0,.028.437c0,.019.121.028.186.019s.149-.019.251-.028a.364.364,0,0,1-.707-.056.65.65,0,0,1,.009-.354.612.612,0,0,1,.261-.307C26.277,32.972,26.444,33.037,26.565,33.242Z" transform="translate(-18.169 -15.925)" fill="#8a919f"/>
      <path id="Path_366" data-name="Path 366" d="M53.619,33.766a.353.353,0,0,1-.428.242.309.309,0,0,1-.279-.289,1.375,1.375,0,0,1,0-.391.318.318,0,0,1,.27-.3.345.345,0,0,1,.419.214h-.27c-.028,0-.056-.028-.074-.019-.047.037-.14.074-.14.121a2.329,2.329,0,0,0,.047.437,1.157,1.157,0,0,0,.186,0C53.442,33.776,53.516,33.776,53.619,33.766Z" transform="translate(-27.192 -15.928)" fill="#8a919f"/>
      <path id="Path_367" data-name="Path 367" d="M44.424,33.756a.361.361,0,0,1-.41.261.283.283,0,0,1-.279-.251,1.118,1.118,0,0,1,.009-.465.512.512,0,0,1,.279-.261c.149-.056.3,0,.391.2h-.261c-.019,0-.047-.028-.056-.019-.056.028-.14.065-.149.1a1.731,1.731,0,0,0,.028.437c0,.019.121.028.186.028S44.312,33.775,44.424,33.756Z" transform="translate(-24.131 -15.927)" fill="#8a919f"/>
      <path id="Path_368" data-name="Path 368" d="M33.162,33.755a.359.359,0,0,1-.447.251.334.334,0,0,1-.27-.344,1.8,1.8,0,0,1,0-.316.329.329,0,0,1,.27-.316.358.358,0,0,1,.428.214h-.27c-.019,0-.047-.028-.056-.019-.056.028-.14.065-.14.1a2.256,2.256,0,0,0,.028.437c0,.019.121.019.186.019C32.976,33.783,33.051,33.764,33.162,33.755Z" transform="translate(-20.373 -15.926)" fill="#8a919f"/>
      <path id="Path_369" data-name="Path 369" d="M48.916,33.765a.335.335,0,0,1-.428.242.32.32,0,0,1-.279-.307c-.009-.1-.009-.214-.009-.316a.344.344,0,0,1,.242-.344.356.356,0,0,1,.456.2h-.261c-.028,0-.056-.028-.074-.019-.056.028-.14.074-.14.112a1.739,1.739,0,0,0,.037.437c0,.019.121.009.186.009A2.629,2.629,0,0,0,48.916,33.765Z" transform="translate(-25.626 -15.927)" fill="#8a919f"/>
      <path id="Path_370" data-name="Path 370" d="M28.055,33.073v.158c-.27.093-.27.093-.326.773-.056,0-.121.009-.2.009v-.949C27.711,33.073,27.869,33.073,28.055,33.073Z" transform="translate(-18.738 -15.942)" fill="#8a919f"/>
      <path id="Path_371" data-name="Path 371" d="M50.079,34.022H49.9v-.931h.521a.174.174,0,0,1-.14.2.366.366,0,0,0-.168.233A2.726,2.726,0,0,0,50.079,34.022Z" transform="translate(-26.194 -15.951)" fill="#8a919f"/>
      <path id="Path_372" data-name="Path 372" d="M58.219,34.031c-.065,0-.121-.009-.177-.009v-.931h.531a.174.174,0,0,1-.14.2.343.343,0,0,0-.168.233A2.717,2.717,0,0,0,58.219,34.031Z" transform="translate(-28.907 -15.951)" fill="#8a919f"/>
      <path id="Path_373" data-name="Path 373" d="M45.6,33.8c-.065,0-.093.009-.13.009a.237.237,0,0,1-.065-.019v-1.34c.084-.019.186-.074.186.084C45.6,32.953,45.6,33.372,45.6,33.8Z" transform="translate(-24.695 -15.729)" fill="#8a919f"/>
      <path id="Path_374" data-name="Path 374" d="M46.228,34.031c-.084-.047-.186-.074-.233-.14a.529.529,0,0,1-.037-.773.455.455,0,0,1,.279-.112.655.655,0,0,0,.065.959A.607.607,0,0,0,46.228,34.031Z" transform="translate(-24.828 -15.923)" fill="#8a919f"/>
      <g id="Group_56" data-name="Group 56" transform="translate(67.476 0.288)">
        <path id="Path_375" data-name="Path 375" d="M122.321,11.82a7.113,7.113,0,0,0-.586-2.271,2.821,2.821,0,0,0-2.495-1.731,2.54,2.54,0,0,0-2.429,1.191,4.375,4.375,0,0,0-.559,1.219,16.353,16.353,0,0,0-.41,2.336c-.13,1.461-.223,2.923-.27,4.394a37.7,37.7,0,0,0,.344,6.562,3.891,3.891,0,0,0,.856,2.411,2.778,2.778,0,0,0,.959.782c.447.158.884.307,1.331.465h.2a1.621,1.621,0,0,1,.2-.047,2.761,2.761,0,0,0,2.122-1.35,3.342,3.342,0,0,0,.41-1.359c.1-.94.2-1.88.251-2.82.1-1.7.2-3.416.251-5.12A26.929,26.929,0,0,0,122.321,11.82Zm-2.094,4.84c-.047,1.6-.158,3.2-.251,4.8q-.07,1.089-.168,2.178a8.416,8.416,0,0,1-.158.949.572.572,0,0,1-.949.242,1.262,1.262,0,0,1-.391-.791c-.149-1.229-.307-2.457-.419-3.686-.065-.754-.056-1.517-.074-2.281a54.744,54.744,0,0,1,.344-5.79,4.885,4.885,0,0,1,.428-1.7,2.436,2.436,0,0,1,.363-.512c.168-.186.307-.177.456.028a1.885,1.885,0,0,1,.242.419,6.484,6.484,0,0,1,.465,2.057A27.217,27.217,0,0,1,120.227,16.66Z" transform="translate(-115.553 -7.813)" fill="#8a919f"/>
      </g>
      <g id="Group_57" data-name="Group 57" transform="translate(58.936 0.291)">
        <path id="Path_376" data-name="Path 376" d="M109.553,12a7.5,7.5,0,0,0-.54-2.327,2.953,2.953,0,0,0-3.621-1.731,2.694,2.694,0,0,0-1.731,1.6,7.633,7.633,0,0,0-.614,2.569,49.474,49.474,0,0,0-.3,5.985,29.409,29.409,0,0,0,.577,5.781,3.113,3.113,0,0,0,.94,1.769,2.957,2.957,0,0,0,2.281.707,2.681,2.681,0,0,0,2.541-2.1,17.148,17.148,0,0,0,.27-1.945c.084-.931.13-1.871.177-2.8.074-1.489.14-2.979.214-4.505C109.683,14.009,109.637,13,109.553,12Zm-2.42,9.346c-.056.7-.13,1.4-.2,2.094a1.285,1.285,0,0,1-.372.81c-.251.242-.437.233-.642-.047a2.884,2.884,0,0,1-.484-1.257,28.831,28.831,0,0,1-.41-4.654V17.7a45.646,45.646,0,0,1,.335-5.641,4.439,4.439,0,0,1,.586-1.9c.3-.456.363-.512.726-.019a3.336,3.336,0,0,1,.577,1.713c.093,1.005.177,2.011.186,3.016C107.44,17.034,107.319,19.193,107.133,21.344Z" transform="translate(-102.744 -7.818)" fill="#8a919f"/>
      </g>
      <g id="Group_59" data-name="Group 59" transform="translate(26.259 7.881)">
        <path id="Path_377" data-name="Path 377" d="M53.728,20.288a.345.345,0,0,0,.019.084c.037.1.065.214.093.316-.028-.1-.065-.214-.093-.316A.472.472,0,0,1,53.728,20.288Z" transform="translate(-53.728 -19.564)" fill="#8a919f"/>
        <path id="Path_378" data-name="Path 378" d="M54.775,24.248a.188.188,0,0,0,.121-.009A.19.19,0,0,1,54.775,24.248Z" transform="translate(-54.077 -20.881)" fill="#8a919f"/>
        <path id="Path_379" data-name="Path 379" d="M54.58,23.778c.009.056.019.121.028.177.009.028.009.056.028.074a.641.641,0,0,1-.028-.074C54.6,23.89,54.589,23.834,54.58,23.778Z" transform="translate(-54.012 -20.727)" fill="#8a919f"/>
        <path id="Path_380" data-name="Path 380" d="M56.311,23.8c.13-.028.251-.065.382-.1a4.043,4.043,0,0,1,.447-.13c-.149.037-.3.093-.447.13C56.562,23.736,56.432,23.774,56.311,23.8Z" transform="translate(-54.589 -20.658)" fill="#8a919f"/>
        <path id="Path_381" data-name="Path 381" d="M58.4,21.47c-.019-.093-.047-.186-.065-.279a1.7,1.7,0,0,0-.065-.233c.019.084.047.158.065.233C58.35,21.284,58.378,21.377,58.4,21.47Z" transform="translate(-55.241 -19.787)" fill="#8a919f"/>
        <path id="Path_382" data-name="Path 382" d="M56.241,19.427c.3-.074.586-.14.884-.214C56.828,19.3,56.539,19.352,56.241,19.427Z" transform="translate(-54.566 -19.206)" fill="#8a919f"/>
        <path id="Path_383" data-name="Path 383" d="M58.764,23.038a1.082,1.082,0,0,0-.037-.168,1.082,1.082,0,0,1,.037.168Z" transform="translate(-55.394 -20.425)" fill="#8a919f"/>
        <path id="Path_384" data-name="Path 384" d="M54.533,23.518c-.028-.177-.056-.354-.093-.521C54.477,23.164,54.505,23.341,54.533,23.518Z" transform="translate(-53.965 -20.467)" fill="#8a919f"/>
        <path id="Path_385" data-name="Path 385" d="M56.083,23.918c-.149.037-.3.074-.456.1C55.776,23.983,55.925,23.955,56.083,23.918Z" transform="translate(-54.361 -20.774)" fill="#8a919f"/>
        <path id="Path_386" data-name="Path 386" d="M53.826,20.12a.641.641,0,0,1,.074-.028A.642.642,0,0,0,53.826,20.12Z" transform="translate(-53.761 -19.499)" fill="#8a919f"/>
        <path id="Path_387" data-name="Path 387" d="M54.747,24.234a.2.2,0,0,1-.056-.037A.085.085,0,0,0,54.747,24.234Z" transform="translate(-54.049 -20.867)" fill="#8a919f"/>
        <path id="Path_388" data-name="Path 388" d="M55.781,22.061a.425.425,0,0,0,.112.112A.321.321,0,0,1,55.781,22.061Z" transform="translate(-54.412 -20.155)" fill="#8a919f"/>
        <path id="Path_389" data-name="Path 389" d="M56.432,22.284a.438.438,0,0,1-.149.037A1.158,1.158,0,0,0,56.432,22.284Z" transform="translate(-54.58 -20.229)" fill="#8a919f"/>
        <path id="Path_390" data-name="Path 390" d="M58.722,23.248a.073.073,0,0,1-.037.037A.073.073,0,0,0,58.722,23.248Z" transform="translate(-55.38 -20.551)" fill="#8a919f"/>
        <path id="Path_391" data-name="Path 391" d="M53.728,20.269v0Z" transform="translate(-53.728 -19.545)" fill="#8a919f"/>
        <path id="Path_392" data-name="Path 392" d="M54.026,21.488c-.019-.084-.028-.168-.047-.251C54,21.312,54.007,21.4,54.026,21.488Z" transform="translate(-53.812 -19.88)" fill="#8a919f"/>
        <path id="Path_393" data-name="Path 393" d="M54.268,22.391c-.056-.2-.121-.4-.177-.6C54.147,22,54.212,22.2,54.268,22.391Z" transform="translate(-53.849 -20.067)" fill="#8a919f"/>
        <path id="Path_394" data-name="Path 394" d="M53.9,20.874c.009.037.019.074.028.1.009.047.019.084.028.13-.009-.047-.019-.084-.028-.13A.243.243,0,0,0,53.9,20.874Z" transform="translate(-53.784 -19.759)" fill="#8a919f"/>
        <path id="Path_395" data-name="Path 395" d="M53.937,20.022c.233-.047.475-.084.707-.14C54.412,19.939,54.179,19.976,53.937,20.022Z" transform="translate(-53.798 -19.429)" fill="#8a919f"/>
        <path id="Path_396" data-name="Path 396" d="M58.782,23.159a.07.07,0,0,0,.009-.037h0A.056.056,0,0,0,58.782,23.159Z" transform="translate(-55.413 -20.509)" fill="#8a919f"/>
        <path id="Path_397" data-name="Path 397" d="M58.61,22.331c-.028-.112-.056-.214-.084-.326-.019-.093-.047-.186-.065-.279.019.093.047.186.065.279C58.554,22.117,58.582,22.219,58.61,22.331Z" transform="translate(-55.306 -20.043)" fill="#8a919f"/>
        <path id="Path_398" data-name="Path 398" d="M57.554,23.49c.242-.056.484-.093.726-.149.009,0,.009,0,.019-.009-.009,0-.009.009-.019.009C58.038,23.4,57.786,23.434,57.554,23.49Z" transform="translate(-55.003 -20.579)" fill="#8a919f"/>
        <path id="Path_399" data-name="Path 399" d="M55.669,19.636c.13-.037.251-.065.382-.1C55.92,19.562,55.8,19.6,55.669,19.636Z" transform="translate(-54.375 -19.313)" fill="#8a919f"/>
        <path id="Path_400" data-name="Path 400" d="M57.931,19.534l.056.223Q57.959,19.659,57.931,19.534Z" transform="translate(-55.129 -19.313)" fill="#8a919f"/>
        <g id="Group_58" data-name="Group 58">
          <path id="Path_401" data-name="Path 401" d="M56.347,21.246a.247.247,0,0,0-.056-.047.372.372,0,0,0-.447,0,.416.416,0,0,0-.149.186.3.3,0,0,0-.028.158.332.332,0,0,0,.074.214.425.425,0,0,0,.112.112.371.371,0,0,0,.223.065.273.273,0,0,0,.149-.037c.019-.009.028-.019.047-.019a.436.436,0,0,0,.168-.177.279.279,0,0,0,.037-.093.2.2,0,0,0,.009-.074.273.273,0,0,0-.037-.149A.77.77,0,0,0,56.347,21.246Z" transform="translate(-54.374 -19.843)" fill="none"/>
          <path id="Path_402" data-name="Path 402" d="M57.07,21.648c-.009-.056-.028-.112-.037-.168-.028-.112-.056-.214-.084-.326-.019-.093-.047-.186-.065-.279s-.047-.186-.065-.279a1.7,1.7,0,0,0-.065-.233c-.019-.084-.047-.158-.065-.233-.047-.158-.084-.316-.13-.475h.019a1.959,1.959,0,0,1-.056-.223.2.2,0,0,1-.009-.074c-.019-.158-.093-.177-.233-.14-.289.074-.586.14-.884.214-.13.028-.261.065-.382.1a4.043,4.043,0,0,1-.447.13c-.233.056-.475.093-.707.14-.028.009-.056.009-.074.028a.116.116,0,0,0-.056.074v.037a.345.345,0,0,0,.019.084c.037.1.065.214.093.316.009.037.019.074.028.1.009.047.019.084.028.13.019.084.028.168.047.251.009.047.019.084.028.13.056.2.121.4.177.6.019.065.037.13.056.2a4.684,4.684,0,0,1,.093.521c.009.056.019.121.028.177.009.028.009.056.028.074s.009.019.019.028a.085.085,0,0,0,.056.037.188.188,0,0,0,.121-.009l.447-.112c.149-.037.3-.074.456-.1.13-.028.251-.065.382-.1a4.043,4.043,0,0,1,.447-.13c.242-.056.484-.093.726-.149.009,0,.009,0,.019-.009l.019-.019.037-.037a.2.2,0,0,0,.028-.047.07.07,0,0,0,.009-.037A1.143,1.143,0,0,1,57.07,21.648Zm-1.247-.689a.459.459,0,0,1-.2.27.071.071,0,0,1-.047.019.438.438,0,0,1-.149.037.448.448,0,0,1-.223-.065.321.321,0,0,1-.112-.112.373.373,0,0,1-.074-.214.473.473,0,0,1,.028-.158.416.416,0,0,1,.149-.186.4.4,0,0,1,.223-.074.379.379,0,0,1,.223.074c.019.019.047.028.056.047a.661.661,0,0,1,.093.13.3.3,0,0,1,.037.149Z" transform="translate(-53.728 -19.202)" fill="#8a919f"/>
        </g>
        <path id="Path_403" data-name="Path 403" d="M56.562,22.154a.436.436,0,0,0,.168-.177A.386.386,0,0,1,56.562,22.154Z" transform="translate(-54.673 -20.127)" fill="#8a919f"/>
      </g>
      <g id="Group_60" data-name="Group 60" transform="translate(27.949 17.103)">
        <path id="Path_404" data-name="Path 404" d="M56.733,33.8c-.158.065-.233.019-.233-.186h.493c0-.074.009-.14.009-.2a.35.35,0,0,0-.354-.382.354.354,0,0,0-.382.372,2.792,2.792,0,0,0,0,.279.323.323,0,0,0,.279.326A.372.372,0,0,0,57,33.761,1.44,1.44,0,0,0,56.733,33.8Zm-.27-.419c.047-.047.1-.14.149-.14.065,0,.121.074.186.121-.009.019-.028.047-.037.065H56.5A.093.093,0,0,1,56.463,33.38Z" transform="translate(-56.263 -33.035)" fill="#8a919f"/>
      </g>
      <g id="Group_61" data-name="Group 61" transform="translate(24.6 17.094)">
        <path id="Path_405" data-name="Path 405" d="M51.912,33.319c-.009-.2-.112-.289-.316-.3s-.307.084-.326.316c.074-.019.14-.028.2-.047s.13-.065.158-.047c.047.028.056.112.1.2a2.282,2.282,0,0,1-.233.009.261.261,0,0,0-.261.316c.009.158.112.242.3.242.112,0,.233-.009.382-.019C51.912,33.766,51.912,33.543,51.912,33.319Zm-.344.559c-.056-.074-.084-.121-.112-.158a.759.759,0,0,1,.158-.1c.019-.009.093.074.084.084A.84.84,0,0,1,51.567,33.878Z" transform="translate(-51.239 -33.022)" fill="#8a919f"/>
      </g>
      <g id="Group_62" data-name="Group 62" transform="translate(99.097 0.531)">
        <path id="Path_406" data-name="Path 406" d="M163.413,8.646c.028-.112.121-.251.084-.326-.1-.214-.326-.121-.512-.13v.726c.242-.009.047-.242.2-.326a1.584,1.584,0,0,1,.14.2.171.171,0,0,0,.214.112c-.065-.093-.121-.186-.186-.27A.158.158,0,0,0,163.413,8.646Zm-.289-.13c-.009-.084-.009-.14-.019-.251a1.227,1.227,0,0,1,.261.084.191.191,0,0,1,0,.1C163.3,8.478,163.218,8.488,163.125,8.516Z" transform="translate(-162.985 -8.178)" fill="#8a919f"/>
        <path id="Path_407" data-name="Path 407" d="M163.819,9.285Z" transform="translate(-163.261 -8.547)" fill="#8a919f"/>
      </g>
    </g>
  </g>
</svg>
