<svg xmlns="http://www.w3.org/2000/svg" xmlns:xlink="http://www.w3.org/1999/xlink" width="100" height="33.333" viewBox="0 0 100 33.333">
  <defs>
    <clipPath id="clip-path">
      <rect id="Rectangle_45" data-name="Rectangle 45" width="100" height="33.333" fill="#8a919f"/>
    </clipPath>
  </defs>
  <g id="Mask_Group_7" data-name="Mask Group 7" clip-path="url(#clip-path)">
    <g id="Layer_1" data-name="Layer 1" transform="translate(0 9.726)">
      <g id="Group_49" data-name="Group 49" transform="translate(0 0)">
        <path id="Path_287" data-name="Path 287" d="M59.732,9.079l.026-.047-.028.045a3.658,3.658,0,0,0-2-.522A4.216,4.216,0,0,0,54.1,10.532a7.316,7.316,0,0,0-1.142,3.977,4.312,4.312,0,0,0,.728,2.662c.291.394.988,1.341,3.252,1.345a4.858,4.858,0,0,0,2.715-.644l.065-.091c.079-.341.345-1.9.453-2.294l-.083-.063a4.259,4.259,0,0,1-2.642,1.087,2.2,2.2,0,0,1-1.5-.455,1.65,1.65,0,0,1-.5-1.29c0-.2.014-.388.033-.589v-.047h.045c1.536-.041,2.319-.061,3.6-.061h1.467l.1-.069a9.581,9.581,0,0,0,.274-2.107,3.148,3.148,0,0,0-1.229-2.813M58.72,12.33v.043l-1.5.02-1.488.018.014-.049v-.022c.028-.106.061-.219.1-.337a3.075,3.075,0,0,1,.51-1.016,2.167,2.167,0,0,1,.144-.167,1.549,1.549,0,0,1,1.179-.583,1.067,1.067,0,0,1,.878.406.922.922,0,0,1,.083.128,1.329,1.329,0,0,1,.171.524,1.394,1.394,0,0,1,.014.2,4.936,4.936,0,0,1-.1.839Zm-5.843-1.695-.1.1L51.295,10.7,50.6,13.936a12.611,12.611,0,0,0-.3,1.744.752.752,0,0,0,.27.634.874.874,0,0,0,.536.165,1.811,1.811,0,0,0,.831-.219l.047.047-.364,1.859-.126.124a6.316,6.316,0,0,1-1.423.2c-1.374,0-2.37-.471-2.376-2.077a19.088,19.088,0,0,1,.528-3.138l.551-2.573-1.164.039-.067-.1.337-1.807.108-.059h1.193l.474-2.38.091-.1c1.183-.3,1.524-.449,2.6-.8l.057.063-.36,1.534-.366,1.725,1.514-.045.041.077ZM71.145,7.587l-.081.089H67.158l-.638,3.252,3.42-.1.051.081c-.282.939-.348,1.2-.536,2.02l-.085.085H66.118l-.429,2.264-.541,2.939-.071.067-2.8.073-.033-.073.484-2.5.742-3.532c.561-2.746.723-3.621,1.252-6.613l.083-.083h4.089l2.6-.067.051.067Zm5.524,1.587a4.6,4.6,0,0,0-2.6-.579,9.468,9.468,0,0,0-1.777.168c-.532.1-.863.187-1.146.269l-.077.079-.384,1.977.124.075c.25-.114.61-.256,1.093-.425a4.1,4.1,0,0,1,1.351-.26,2.924,2.924,0,0,1,1.36.25,1.1,1.1,0,0,1,.545.965,1.605,1.605,0,0,1-.022.272,1.311,1.311,0,0,0-.028.163v.043s-.193.012-.4.03c-.138.012-.311.03-.508.057-.329.035-.7.081-1.028.136-.788.132-3,.474-3.658,1.955a3.369,3.369,0,0,0,.108,3.609,1.989,1.989,0,0,0,1.1.644h0l.114.02a3.911,3.911,0,0,0,3.282-1.372l-.2,1.028.083.073,2.15-.073.085-.077L77.5,11.853a4.149,4.149,0,0,0,.063-.474c.014-.181.024-.329.024-.437a2.053,2.053,0,0,0-.921-1.76Zm-2.215,6.359a3.044,3.044,0,0,1-1.254,1.1,1.25,1.25,0,0,1-1.488-.228,1.349,1.349,0,0,1,.148-1.731c.669-.8,2.924-.856,2.924-.856Zm10.427-7.06L84.357,11.2l-.112.112a3.27,3.27,0,0,0-.567-.049,3.048,3.048,0,0,0-2.508,1.272h0l-1.1,5.684-.077.067-2.357.071-.063-.061,1.855-9.515.1-.1,2.335-.228.091.1-.26,1.378.114-.106a7.594,7.594,0,0,1,1.406-1.016A2.863,2.863,0,0,1,84.655,8.4H84.8ZM10.4,15.025a1.985,1.985,0,0,1-1.122,1.626,5.359,5.359,0,0,1-2.741.689,5.259,5.259,0,0,1-2.721-.689,2,2,0,0,1-1.1-1.626A1.979,1.979,0,0,1,3.814,13.4a5.361,5.361,0,0,1,2.729-.677,5.391,5.391,0,0,1,2.735.677A1.988,1.988,0,0,1,10.4,15.025ZM7.9,8.707A1.969,1.969,0,0,1,9,7.081,5.355,5.355,0,0,1,11.732,6.4a5.4,5.4,0,0,1,2.737.681,1.985,1.985,0,0,1,1.116,1.626,1.97,1.97,0,0,1-1.122,1.626,5.351,5.351,0,0,1-2.739.689A5.261,5.261,0,0,1,9,10.335,1.986,1.986,0,0,1,7.9,8.707Zm12.86,6.318a1.986,1.986,0,0,1-1.12,1.626,5.369,5.369,0,0,1-2.741.689,5.267,5.267,0,0,1-2.723-.689,1.992,1.992,0,0,1-1.1-1.626A1.983,1.983,0,0,1,14.177,13.4a5.314,5.314,0,0,1,2.727-.679,5.363,5.363,0,0,1,2.737.679A1.985,1.985,0,0,1,20.757,15.025ZM16.9,11.251a7.456,7.456,0,0,0-1.384.128A3.335,3.335,0,0,0,17.066,8.7c0-2.1-2.384-3.768-5.345-3.768S6.41,6.606,6.41,8.7a3.347,3.347,0,0,0,1.534,2.678,7.676,7.676,0,0,0-1.4-.13c-2.959,0-5.32,1.67-5.32,3.768s2.349,3.8,5.306,3.8c2.52,0,4.635-1.232,5.206-2.892.563,1.66,2.642,2.892,5.156,2.892,2.959,0,5.357-1.7,5.357-3.8s-2.386-3.768-5.343-3.768ZM7.415,8.7A2.4,2.4,0,0,1,8.539,6.852a5.558,5.558,0,0,1,3.189-.91,5.613,5.613,0,0,1,3.2.912A2.42,2.42,0,0,1,16.069,8.7c0,1.534-2.01,2.788-4.353,2.79a5.469,5.469,0,0,1-3.18-.923A2.374,2.374,0,0,1,7.415,8.7Zm-.89,9.108a5.487,5.487,0,0,1-3.176-.925,2.355,2.355,0,0,1-1.114-1.868A2.4,2.4,0,0,1,3.359,13.17a5.554,5.554,0,0,1,3.189-.912,5.6,5.6,0,0,1,3.2.914,2.393,2.393,0,0,1,1.136,1.847C10.872,16.555,8.871,17.809,6.525,17.811Zm3.839-5.434a7.3,7.3,0,0,0,1.353.124,7.473,7.473,0,0,0,1.384-.128,3.638,3.638,0,0,0-1.366,1.742,3.658,3.658,0,0,0-1.372-1.738Zm6.525,5.434a5.465,5.465,0,0,1-3.176-.925,2.366,2.366,0,0,1-1.126-1.868,2.4,2.4,0,0,1,1.126-1.849,5.554,5.554,0,0,1,3.189-.912,5.6,5.6,0,0,1,3.2.914,2.393,2.393,0,0,1,1.134,1.847C21.232,16.555,19.233,17.809,16.89,17.811Zm80.621-6.944a8.459,8.459,0,0,1-.254,1.752l-1.1,5.6-.083.067-2.467.087-.063-.087s1.266-6.18,1.266-6.489a.949.949,0,0,0-.935-1.03,2.277,2.277,0,0,0-1.258.626l-1.333,6.826-.081.067-1.065.037h0l-.949.033-.471.018-.03-.041-.028-.047.427-2.105h0c.368-1.829.839-4.194.839-4.383a.963.963,0,0,0-.935-1.03,2.277,2.277,0,0,0-1.258.626L86.4,18.216l-.081.067-.382.014-2.1.069-.055-.083,1.851-9.5.093-.093,2.463-.234.1.1L88.023,9.89a4.341,4.341,0,0,1,2.7-1.335,1.714,1.714,0,0,1,1.711,1.331,4.821,4.821,0,0,1,2.906-1.331A2.074,2.074,0,0,1,97.511,10.867ZM45.946,9.182a4.6,4.6,0,0,0-2.6-.579,9.414,9.414,0,0,0-1.774.169c-.532.1-.864.187-1.146.268l-.075.079L39.963,11.1l.124.075c.248-.114.61-.256,1.091-.425a4.115,4.115,0,0,1,1.351-.26,2.928,2.928,0,0,1,1.362.25,1.11,1.11,0,0,1,.545.965,1.605,1.605,0,0,1-.022.272,1.31,1.31,0,0,0-.028.163v.043s-.193.012-.406.03c-.136.012-.307.03-.506.057-.327.035-.7.081-1.03.136-.786.132-3,.474-3.658,1.955a3.374,3.374,0,0,0,.106,3.609A2,2,0,0,0,40,18.6h0l.116.02A3.917,3.917,0,0,0,43.4,17.252l-.2,1.028.083.073,2.15-.073.087-.077,1.262-6.351a4.57,4.57,0,0,0,.067-.474c.012-.181.022-.329.022-.437a2.055,2.055,0,0,0-.919-1.76Zm-2.209,6.351a3.056,3.056,0,0,1-1.256,1.1A1.247,1.247,0,0,1,41,16.4a1.352,1.352,0,0,1,.148-1.731c.669-.8,2.916-.856,2.916-.856Zm-5.178-4.889-.1.1-1.469-.037L36.3,13.936a12.924,12.924,0,0,0-.3,1.744.752.752,0,0,0,.272.634.868.868,0,0,0,.516.167,1.8,1.8,0,0,0,.831-.219l.049.047L37.3,18.167l-.126.124a6.314,6.314,0,0,1-1.423.2c-1.376,0-2.372-.471-2.378-2.077a18.9,18.9,0,0,1,.53-3.138l.545-2.565-1.162.039-.069-.1.339-1.807.108-.059h1.179l.476-2.38.091-.1c1.183-.3,1.524-.449,2.6-.8l.055.063L37.71,7.1l-.368,1.725,1.516-.045.041.077ZM33,6.256l-.451,2.315-.1.035a2.168,2.168,0,0,0-.541-.545,3.1,3.1,0,0,0-1.88-.667,1.849,1.849,0,0,0-1.264.437,1.443,1.443,0,0,0-.476,1.091c0,.813.559,1.219,1.553,1.813l.388.219a3.77,3.77,0,0,1,2.128,3.286c0,2.16-1.388,4.331-4.711,4.335a6.706,6.706,0,0,1-2.378-.435,3.861,3.861,0,0,1-1.081-.61l-.024-.148.439-2.262.1-.033a3.3,3.3,0,0,0,.825.717,3.455,3.455,0,0,0,1.91.6c1.173,0,2.093-.671,2.093-1.711,0-.929-.736-1.4-1.506-1.849l-.53-.329a3.517,3.517,0,0,1-2-3.156,4.44,4.44,0,0,1,.841-2.591,4.193,4.193,0,0,1,3.481-1.51,5.45,5.45,0,0,1,3.144.9Z" transform="translate(-1.219 -4.935)" fill="#8a919f"/>
        <path id="Path_288" data-name="Path 288" d="M149.858,11.8a1.36,1.36,0,1,1-2.717,0,1.36,1.36,0,1,1,2.717,0m-2.538,0a1.183,1.183,0,1,0,2.359,0,1.331,1.331,0,0,0-.337-.894,1.179,1.179,0,0,0-.827-.358,1.195,1.195,0,0,0-1.195,1.242Zm1.116-.813a1.016,1.016,0,0,1,.35.041.427.427,0,0,1-.037.813l.329.772h-.228l-.3-.732h-.337v.732H148V10.983Zm-.014.723c.2,0,.276-.012.337-.061a.256.256,0,0,0,.1-.215.234.234,0,0,0-.154-.24.935.935,0,0,0-.327-.033h-.161v.549Z" transform="translate(-49.86 -6.744)" fill="#8a919f"/>
      </g>
    </g>
  </g>
</svg>
