<svg xmlns="http://www.w3.org/2000/svg" xmlns:xlink="http://www.w3.org/1999/xlink" width="100" height="33.333" viewBox="0 0 100 33.333">
  <defs>
    <clipPath id="clip-path">
      <rect id="Rectangle_45" data-name="Rectangle 45" width="100" height="33.333" fill="#8a919f"/>
    </clipPath>
  </defs>
  <g id="Mask_Group_4" data-name="Mask Group 4" clip-path="url(#clip-path)">
    <g id="T-Mobile_gray" transform="translate(0 8.459)">
      <path id="Path_258" data-name="Path 258" d="M6.434,31.851H9.69V28.594H6.434Z" transform="translate(-6.434 -21.181)" fill="#8a919f"/>
      <path id="Path_259" data-name="Path 259" d="M14.271,18.242c2.648.053,4.236,1.8,4.474,5.057l.874-.132-.185-5.692H6.593l-.159,5.692.874.132c.238-3.257,1.8-5.03,4.474-5.057V30.13c0,2.171-.371,2.515-2.7,2.542v.9h7.89v-.9c-2.33-.026-2.7-.371-2.7-2.542V18.242Z" transform="translate(-6.434 -17.474)" fill="#8a919f"/>
      <path id="Path_260" data-name="Path 260" d="M21.247,31.851H24.5V28.594H21.247Z" transform="translate(-11.371 -21.181)" fill="#8a919f"/>
      <path id="Path_261" data-name="Path 261" d="M35.9,31.851h3.283V28.594H35.9Z" transform="translate(-16.256 -21.181)" fill="#8a919f"/>
      <path id="Path_262" data-name="Path 262" d="M50.556,31.851h3.283V28.594H50.556Z" transform="translate(-21.141 -21.181)" fill="#8a919f"/>
      <path id="Path_263" data-name="Path 263" d="M65.118,33.863l4.13-14.112V30.818c0,1.218-.079,1.642-.344,1.933a1.888,1.888,0,0,1-1.244.344h-.212v.741h5.825v-.715h-.291a1.94,1.94,0,0,1-1.244-.344c-.291-.265-.344-.715-.344-1.933V21.366c0-1.218.079-1.642.344-1.933a2.034,2.034,0,0,1,1.218-.344h.291v-.741H68.719L65.33,29.786,61.994,18.348h-4.5v.741h.424c1.244,0,1.456.265,1.456,1.827v9.028a5.618,5.618,0,0,1-.291,2.436,1.406,1.406,0,0,1-1.244.741h-.371v.741h4.845v-.741H62.02a1.518,1.518,0,0,1-1.377-.715c-.291-.477-.344-.874-.344-2.462V19.751l4.1,14.112Z" transform="translate(-23.445 -17.765)" fill="#8a919f"/>
      <path id="Path_264" data-name="Path 264" d="M86.3,25.06c-2.886,0-4.766,2.224-4.766,5.692,0,3.389,1.88,5.666,4.713,5.666s4.713-2.277,4.713-5.692S89.052,25.06,86.3,25.06Zm-.106.741a2.13,2.13,0,0,1,1.959,1.4,8.752,8.752,0,0,1,.53,3.548c0,3.31-.821,4.925-2.462,4.925s-2.436-1.642-2.436-4.977a8.719,8.719,0,0,1,.53-3.495,2.167,2.167,0,0,1,1.88-1.4Z" transform="translate(-31.467 -20.003)" fill="#8a919f"/>
      <path id="Path_265" data-name="Path 265" d="M99.775,18.07l-3.309.159v.715h.159c.98,0,1.191.318,1.191,1.853V31.44a6.448,6.448,0,0,1-.238,2.3h.768c.582-.927.715-1.086.953-1.086a.563.563,0,0,1,.4.185,3.579,3.579,0,0,0,2.674,1.138c2.515,0,4.316-2.409,4.316-5.8,0-3.2-1.668-5.375-4.183-5.375a2.816,2.816,0,0,0-2.754,1.747l.026-6.487Zm2.436,5.586c1.483,0,2.25,1.589,2.25,4.66,0,3.2-.794,4.9-2.3,4.9-1.668,0-2.568-1.694-2.568-4.819a6.764,6.764,0,0,1,.688-3.442,2.323,2.323,0,0,1,1.933-1.3Z" transform="translate(-36.444 -17.673)" fill="#8a919f"/>
      <path id="Path_266" data-name="Path 266" d="M116.561,22.954l-3.389.159v.715h.265c.98,0,1.191.318,1.191,1.853v5.533c0,1.536-.212,1.88-1.191,1.88h-.371v.715h5.083v-.715h-.371c-.98,0-1.191-.318-1.191-1.88l-.026-8.261Zm-1.112-4.766a1.3,1.3,0,0,0-1.35,1.218,1.277,1.277,0,0,0,1.218,1.35h.106a1.285,1.285,0,0,0,.026-2.568Z" transform="translate(-41.978 -17.712)" fill="#8a919f"/>
      <path id="Path_267" data-name="Path 267" d="M125.377,18.07l-3.389.159v.715h.265c.98,0,1.191.318,1.191,1.853V31.176c0,1.562-.212,1.88-1.191,1.88h-.371v.715h5.057v-.715h-.371c-.98,0-1.191-.318-1.191-1.88V18.07Z" transform="translate(-44.917 -17.673)" fill="#8a919f"/>
      <path id="Path_268" data-name="Path 268" d="M139.092,30.672c-.132-3.442-1.8-5.613-4.342-5.613-2.436,0-4.21,2.356-4.21,5.613,0,3.521,1.747,5.745,4.448,5.745,1.747,0,2.965-.9,3.945-2.939l-.688-.371c-.821,1.721-1.615,2.409-2.886,2.409-1.827,0-2.621-1.456-2.648-4.845Zm-6.354-.821c.026-2.436.847-3.971,2.145-3.971s2.065,1.483,2.039,3.971Z" transform="translate(-47.802 -20.003)" fill="#8a919f"/>
      <path id="Path_269" data-name="Path 269" d="M153.329,26.218a.974.974,0,1,1,1.377,0,.961.961,0,0,1-.688.291A1.009,1.009,0,0,1,153.329,26.218Zm-.132-1.536a1.2,1.2,0,0,0,1.694,1.694h0a1.118,1.118,0,0,0,.344-.847,1.275,1.275,0,0,0-.344-.847,1.183,1.183,0,0,0-1.694,0Zm1.033.9a.342.342,0,0,0,.238-.344.326.326,0,0,0-.132-.265.532.532,0,0,0-.344-.106h-.4v1.271h.265v-.5h.132l.344.5h.291Zm-.371-.5h.132c.159,0,.238.053.238.185s-.079.185-.238.185h-.132Z" transform="translate(-55.236 -19.758)" fill="#8a919f"/>
      <path id="Path_270" data-name="Path 270" d="M147.538,31.851h3.257V28.594h-3.257Z" transform="translate(-53.468 -21.181)" fill="#8a919f"/>
    </g>
  </g>
</svg>
