<svg xmlns="http://www.w3.org/2000/svg" xmlns:xlink="http://www.w3.org/1999/xlink" width="100" height="33.333" viewBox="0 0 100 33.333">
  <defs>
    <clipPath id="clip-path">
      <rect id="Rectangle_45" data-name="Rectangle 45" width="100" height="33.333" fill="#8a919f"/>
    </clipPath>
  </defs>
  <g id="Mask_Group_6" data-name="Mask Group 6" clip-path="url(#clip-path)">
    <g id="Toyota_gray" transform="translate(0 2.913)">
      <path id="Path_279" data-name="Path 279" d="M109.56,18.56l1.547-4.04,1.547,4.04Zm3.147-6.347h-3.2l-4.48,10.973H107.8l1.027-2.68H113.4l1.027,2.68h2.76Zm-22.6,9.067a3.461,3.461,0,0,1-3.267-3.64,3.286,3.286,0,1,1,6.533,0,3.461,3.461,0,0,1-3.267,3.64m0-9.44a5.793,5.793,0,1,0,5.8,5.787,5.784,5.784,0,0,0-5.8-5.787h0M67.24,21.28a3.469,3.469,0,0,1-3.267-3.64,3.291,3.291,0,1,1,6.547-.013,3.483,3.483,0,0,1-3.28,3.653m.013-9.44a5.793,5.793,0,1,0,5.787,5.8h0a5.784,5.784,0,0,0-5.787-5.8h0m14.32.373-2.84,4.44-2.84-4.44H73.12l4.4,6.88v4.093h2.44v-4.08l4.4-6.88Zm24.04,0H96.24V14.32h3.48v8.867h2.44V14.32h3.453V12.213ZM51.56,14.32h3.48v8.867h2.44V14.32h3.467V12.213H51.56Z" transform="translate(-17.187 -3.947)" fill="#8a919f"/>
      <g id="Group_48" data-name="Group 48">
        <path id="Path_280" data-name="Path 280" d="M15.633,16.36c.187-1.96.773-3.613,1.733-3.96a11.528,11.528,0,0,0-3.613.653c-.987.373-1.613.853-1.707,1.267C11.847,15.093,12.74,16.053,15.633,16.36Z" transform="translate(-4.007 -4.133)" fill="#8a919f"/>
        <path id="Path_281" data-name="Path 281" d="M14.533,19.127V19.02c-2.693-.36-4.573-1.4-4.653-2.8a4.177,4.177,0,0,0-.96,2.707c0,3.04,3.333,5.56,7.44,5.707C15.386,24.273,14.533,22.487,14.533,19.127Z" transform="translate(-2.973 -5.407)" fill="#8a919f"/>
        <path id="Path_282" data-name="Path 282" d="M18.6,17.153c.413.027.867.04,1.347.04s.933-.013,1.36-.04c-.213-1.627-.8-2.573-1.347-2.573S18.813,15.527,18.6,17.153Z" transform="translate(-6.2 -4.86)" fill="#8a919f"/>
        <path id="Path_283" data-name="Path 283" d="M22.947,16.36c2.88-.32,3.787-1.28,3.587-2.04-.107-.413-.72-.893-1.733-1.28a11.432,11.432,0,0,0-3.6-.64C22.173,12.747,22.747,14.4,22.947,16.36Z" transform="translate(-7.067 -4.133)" fill="#8a919f"/>
        <path id="Path_284" data-name="Path 284" d="M23,19.027v.107c0,3.213-.867,5.133-1.84,5.52,4.107-.147,7.453-2.667,7.453-5.707a4.177,4.177,0,0,0-.96-2.707C27.573,17.627,25.693,18.653,23,19.027Z" transform="translate(-7.053 -5.413)" fill="#8a919f"/>
        <path id="Path_285" data-name="Path 285" d="M21.36,20.567V20.54c-.467.04-.947.053-1.44.053s-.973-.027-1.44-.053v.027c0,2.48.747,3.52,1.44,3.52S21.36,23.047,21.36,20.567Z" transform="translate(-6.16 -6.847)" fill="#8a919f"/>
        <path id="Path_286" data-name="Path 286" d="M0,0V27.507H27.507V0ZM13.747,20c-5.293,0-9.173-2.8-9.173-6.24,0-3.56,3.973-6.24,9.173-6.24s9.173,2.68,9.173,6.24c0,3.44-3.88,6.24-9.173,6.24Z" fill="#8a919f"/>
      </g>
    </g>
  </g>
</svg>
