<svg xmlns="http://www.w3.org/2000/svg" xmlns:xlink="http://www.w3.org/1999/xlink" width="100" height="33.333" viewBox="0 0 100 33.333">
  <defs>
    <clipPath id="clip-path">
      <rect id="Rectangle_45" data-name="Rectangle 45" width="100" height="33.333" fill="#8a919f"/>
    </clipPath>
  </defs>
  <g id="Mask_Group_8" data-name="Mask Group 8" clip-path="url(#clip-path)">
    <g id="Zipchair_Gaming_Horizontal_Logo" transform="translate(0 2.215)">
      <g id="Group_50" data-name="Group 50">
        <path id="Path_289" data-name="Path 289" d="M48.224,38.431h3.508l2.612-12.36H50.836Z" transform="translate(-27.809 -18.909)" fill="#8a919f"/>
        <path id="Path_290" data-name="Path 290" d="M113.258,25.976a2.191,2.191,0,0,0-.183-.956,1.331,1.331,0,0,0-.6-.593,3.2,3.2,0,0,0-1.094-.3,13.91,13.91,0,0,0-1.656-.085h-3.678a2.975,2.975,0,0,0-2.636,1.547l1.208-5.683h-3.532L97.584,36.372h3.508l1.645-7.644a4.555,4.555,0,0,1,.23-.9,1.181,1.181,0,0,1,.363-.519,1.307,1.307,0,0,1,.628-.241,7.171,7.171,0,0,1,1.028-.061h2.806a3.8,3.8,0,0,1,1.317.146.615.615,0,0,1,.326.628,6.231,6.231,0,0,1-.146.943l-1.621,7.644h3.495l1.9-8.852A8.015,8.015,0,0,0,113.258,25.976Z" transform="translate(-44.263 -16.853)" fill="#8a919f"/>
        <path id="Path_291" data-name="Path 291" d="M135.11,28.044a2.191,2.191,0,0,0-.183-.956,1.312,1.312,0,0,0-.594-.593,3.149,3.149,0,0,0-1.089-.3,13.93,13.93,0,0,0-1.669-.085h-8.513l-.628,2.975h7.207a3.828,3.828,0,0,1,1.319.146.615.615,0,0,1,.326.628,6.229,6.229,0,0,1-.146.943l-.991,4.668h-5.272c-.517,0-.774-.217-.774-.654a1.045,1.045,0,0,1,.315-.726,1.073,1.073,0,0,1,.821-.339h3.8l.628-2.975h-4.088a13.99,13.99,0,0,0-2.043.122,3.093,3.093,0,0,0-1.343.5,2.663,2.663,0,0,0-.858,1.068,8.591,8.591,0,0,0-.57,1.807l-.146.678c-.064.307-.114.586-.146.837a5.72,5.72,0,0,0-.048.715,2.236,2.236,0,0,0,.18.959,1.3,1.3,0,0,0,.593.593,3.149,3.149,0,0,0,1.089.3,13.4,13.4,0,0,0,1.669.085h9.069l1.886-8.852A7.8,7.8,0,0,0,135.11,28.044Z" transform="translate(-51.876 -18.921)" fill="#8a919f"/>
        <path id="Path_292" data-name="Path 292" d="M144.338,26.071l-2.612,12.36h3.508l2.612-12.36Z" transform="translate(-58.977 -18.909)" fill="#8a919f"/>
        <path id="Path_293" data-name="Path 293" d="M157.829,26.107a2.956,2.956,0,0,0-2.612,1.547l.313-1.547h-3.505l-2.636,12.336H152.9l1.645-7.644a4.555,4.555,0,0,1,.23-.9,1.181,1.181,0,0,1,.363-.519,1.307,1.307,0,0,1,.628-.241,7.171,7.171,0,0,1,1.028-.061H160.9l.628-2.975Z" transform="translate(-61.531 -18.921)" fill="#8a919f"/>
        <path id="Path_294" data-name="Path 294" d="M83.147,35.3a.617.617,0,0,1-.326-.631,2.142,2.142,0,0,1,.037-.35c.024-.154.053-.352.085-.593l.631-2.954a7.479,7.479,0,0,1,.241-.9,1.087,1.087,0,0,1,.363-.522,1.406,1.406,0,0,1,.631-.244,7.141,7.141,0,0,1,1.041-.061h5.983l.631-2.978H85.147a12.518,12.518,0,0,0-1.984.132,3.313,3.313,0,0,0-1.341.509,2.721,2.721,0,0,0-.88,1.055,8.458,8.458,0,0,0-.6,1.791l-1.131,5.378a7.168,7.168,0,0,0-.217,1.55,2.449,2.449,0,0,0,.156.933,1.188,1.188,0,0,0,.554.593,3.183,3.183,0,0,0,1.084.315,12.576,12.576,0,0,0,1.746.1h7.313l.631-2.981H84.469A3.815,3.815,0,0,1,83.147,35.3Z" transform="translate(-38.065 -18.909)" fill="#8a919f"/>
        <path id="Path_295" data-name="Path 295" d="M57.586,24.426a3.166,3.166,0,0,0-1.089-.3,13.687,13.687,0,0,0-1.645-.085H45.806L42.881,37.845H24.639l12.85-14.657.707-3.214H28.884a1.186,1.186,0,0,0-1.158.85l-.143.715h.506a.326.326,0,0,1,.329.411.53.53,0,0,1-.5.413h-.506l-.14.721c-.1.469.273.85.816.85h.75V23.93h2.8L18.18,39.07,17.6,41.8H45.583l.405-1.984h1.15l-.4,1.979H48l.4-1.979H47.173l.395-1.969H46.391l2.294-10.834h4.207a3.616,3.616,0,0,1,1.319.156.636.636,0,0,1,.326.639.9.9,0,0,0-.061.4,2.417,2.417,0,0,1-.037.517l-.678,2.965a6.406,6.406,0,0,1-.2.88,1.119,1.119,0,0,1-.339.517,1.261,1.261,0,0,1-.628.254,7.6,7.6,0,0,1-1.076.061H48.588l-.628,2.975h4.282a14.035,14.035,0,0,0,2-.119,3.277,3.277,0,0,0,1.367-.5,2.7,2.7,0,0,0,.9-1.052,7.147,7.147,0,0,0,.556-1.815l1.113-5.347c.064-.323.111-.612.146-.872a5.785,5.785,0,0,0,.048-.7,2.232,2.232,0,0,0-.18-.956A1.366,1.366,0,0,0,57.586,24.426Z" transform="translate(-17.602 -16.877)" fill="#8a919f"/>
        <path id="Path_296" data-name="Path 296" d="M67.915,46.785H66.659l-.395,1.969H65.043l.395-1.969H64.184l-.4,1.969h1.221l-.4,1.979h1.256l.4-1.979h1.219l-.395,1.979h1.253l.4-1.979H67.517Z" transform="translate(-32.997 -25.814)" fill="#8a919f"/>
        <path id="Path_297" data-name="Path 297" d="M71.719,48.753h1.256l.395-1.969H72.114Z" transform="translate(-35.641 -25.814)" fill="#8a919f"/>
        <path id="Path_298" data-name="Path 298" d="M22.19,23.937h4.7a1.184,1.184,0,0,0,1.158-.85l.143-.718h-.469a.327.327,0,0,1-.329-.413.527.527,0,0,1,.5-.411h.469l.143-.715c.1-.469-.273-.85-.819-.85h-4.7a1.184,1.184,0,0,0-1.158.85l-.45,2.257C21.279,23.555,21.644,23.937,22.19,23.937Zm-.27-.85.45-2.257a.507.507,0,0,1,.5-.3h2.247l-.572,2.861H22.3C22.042,23.386,21.893,23.227,21.92,23.086Z" transform="translate(-18.854 -16.879)" fill="#8a919f"/>
        <path id="Path_299" data-name="Path 299" d="M50,19.03h.363a2.826,2.826,0,0,0,2.467,2.488v.339a.123.123,0,0,0,.122.122h.506a.123.123,0,0,0,.122-.122V21.51a2.823,2.823,0,0,0,2.4-2.48h.429a.123.123,0,0,0,.122-.122V18.4a.123.123,0,0,0-.122-.122h-.448a2.831,2.831,0,0,0-2.379-2.358v-.472a.123.123,0,0,0-.122-.122h-.506a.123.123,0,0,0-.122.122v.461a2.828,2.828,0,0,0-2.448,2.366H50a.123.123,0,0,0-.122.122v.506A.121.121,0,0,0,50,19.03ZM52.83,17V17.5a.123.123,0,0,0,.122.122h.506a.123.123,0,0,0,.122-.122v-.49a1.76,1.76,0,0,1,1.288,1.266h-.511a.123.123,0,0,0-.122.122v.506a.123.123,0,0,0,.122.122h.538a1.755,1.755,0,0,1-1.314,1.388v-.612a.123.123,0,0,0-.122-.122h-.506a.123.123,0,0,0-.122.122v.628a1.755,1.755,0,0,1-1.38-1.4h.607a.123.123,0,0,0,.122-.122V18.4a.123.123,0,0,0-.122-.122h-.578A1.754,1.754,0,0,1,52.83,17Z" transform="translate(-28.362 -15.329)" fill="#8a919f"/>
        <path id="Path_300" data-name="Path 300" d="M143.738,19.03h.363a2.826,2.826,0,0,0,2.467,2.488v.339a.123.123,0,0,0,.122.122h.506a.123.123,0,0,0,.122-.122V21.51a2.823,2.823,0,0,0,2.4-2.48h.427a.123.123,0,0,0,.122-.122V18.4a.123.123,0,0,0-.122-.122h-.448a2.831,2.831,0,0,0-2.379-2.358v-.472a.123.123,0,0,0-.122-.122h-.506a.123.123,0,0,0-.122.122v.461a2.828,2.828,0,0,0-2.448,2.366h-.382a.123.123,0,0,0-.122.122v.506A.124.124,0,0,0,143.738,19.03Zm2.051-.75h-.578A1.757,1.757,0,0,1,146.565,17V17.5a.123.123,0,0,0,.122.122h.506a.123.123,0,0,0,.122-.122v-.49A1.76,1.76,0,0,1,148.6,18.28h-.511a.123.123,0,0,0-.122.122v.506a.123.123,0,0,0,.122.122h.538a1.755,1.755,0,0,1-1.314,1.388v-.612a.123.123,0,0,0-.122-.122h-.506a.123.123,0,0,0-.122.122v.628a1.755,1.755,0,0,1-1.38-1.4h.6a.123.123,0,0,0,.122-.122V18.4A.122.122,0,0,0,145.789,18.28Z" transform="translate(-59.606 -15.329)" fill="#8a919f"/>
      </g>
      <g id="Group_51" data-name="Group 51" transform="translate(45.75 20.838)">
        <path id="Path_301" data-name="Path 301" d="M94.81,49.54H92.423c.14-.668-.448-1.086-1.24-1.086a2.072,2.072,0,0,0-2.17,1.8l-.154.726c-.241,1.134.217,1.8,1.407,1.8a1.642,1.642,0,0,0,1.688-1.031H90.189l.336-1.587h4.152l-.922,4.35h-1.29l-.085-.771a4.86,4.86,0,0,1-2.975.906c-2.591,0-3.59-1.37-3.026-4.033a4.768,4.768,0,0,1,5.095-4.033C93.66,46.583,95.223,47.582,94.81,49.54Z" transform="translate(-86.227 -46.586)" fill="#8a919f"/>
        <path id="Path_302" data-name="Path 302" d="M105.038,54.581l-.1-1.1h-2.726l-.562,1.1H99.1l4.488-7.792h2.906l1.19,7.792Zm-1.931-2.843h1.685l-.228-2.774h-.045Z" transform="translate(-90.517 -46.654)" fill="#8a919f"/>
        <path id="Path_303" data-name="Path 303" d="M120.335,54.581l.593-2.808a22.937,22.937,0,0,1,.7-2.469h-.045l-2.554,5.278h-1.958l-.334-5.267H116.7a18.09,18.09,0,0,1-.318,2.459l-.593,2.808h-2.3l1.651-7.792h3.529l.225,4.5h.045l2.117-4.5h3.4l-1.651,7.792h-2.475Z" transform="translate(-95.314 -46.654)" fill="#8a919f"/>
        <path id="Path_304" data-name="Path 304" d="M130.256,54.581l1.651-7.792h2.5l-1.651,7.792Z" transform="translate(-100.903 -46.654)" fill="#8a919f"/>
        <path id="Path_305" data-name="Path 305" d="M142.595,54.581,140.125,50.8l-.8,3.783h-2.3l1.651-7.792h2.183l2.456,3.839.813-3.839h2.3l-1.651,7.792Z" transform="translate(-103.161 -46.654)" fill="#8a919f"/>
        <path id="Path_306" data-name="Path 306" d="M160.6,49.54h-2.387c.14-.668-.448-1.086-1.24-1.086a2.072,2.072,0,0,0-2.17,1.8l-.154.726c-.241,1.134.217,1.8,1.407,1.8a1.642,1.642,0,0,0,1.688-1.031h-1.765l.336-1.587h4.152l-.922,4.35h-1.29l-.085-.771a4.86,4.86,0,0,1-2.975.906c-2.591,0-3.59-1.37-3.026-4.033a4.768,4.768,0,0,1,5.095-4.033C159.45,46.583,161.016,47.582,160.6,49.54Z" transform="translate(-108.157 -46.586)" fill="#8a919f"/>
      </g>
      <path id="Path_307" data-name="Path 307" d="M75.964,46.785l-.389,1.924H73.394l-.49,2.435h2.181l-.376,1.873h2.549l.376-1.873h2.12l.482-2.435h-2.12l.405-1.924Z" transform="translate(-36.036 -25.814)" fill="#8a919f"/>
      <path id="Path_308" data-name="Path 308" d="M77.446,48.6H79.4l-.707-1.423Z" transform="translate(-37.55 -25.945)" fill="#8a919f"/>
      <path id="Path_309" data-name="Path 309" d="M80.856,50.1l-.366,1.849,1.648-.909Z" transform="translate(-38.565 -26.918)" fill="#8a919f"/>
      <path id="Path_310" data-name="Path 310" d="M75.095,51.945,75.46,50.1,73.81,51Z" transform="translate(-36.338 -26.918)" fill="#8a919f"/>
      <path id="Path_311" data-name="Path 311" d="M77.237,55.035l1.245-1.447H76.548Z" transform="translate(-37.251 -28.082)" fill="#8a919f"/>
    </g>
  </g>
</svg>
